<svg xmlns="http://www.w3.org/2000/svg" viewBox="0 0 1600 900">
<defs>
<linearGradient id="paperGradient" x1="0" y1="0" x2="1" y2="1">
  <stop offset="0%" stop-color="#efe6d8"/>
  <stop offset="100%" stop-color="#e4dccd"/>
</linearGradient>
<pattern id="paperNoise" width="80" height="80" patternUnits="userSpaceOnUse">
  <rect width="80" height="80" fill="url(#paperGradient)"/>
  <circle cx="12" cy="18" r="1.2" fill="#d9cfbf" opacity="0.6"/>
  <circle cx="46" cy="32" r="1.1" fill="#d2c6b3" opacity="0.5"/>
  <circle cx="70" cy="12" r="0.9" fill="#d9cfbf" opacity="0.4"/>
  <circle cx="24" cy="64" r="1.3" fill="#d2c6b3" opacity="0.5"/>
</pattern>
</defs>
<rect width="1600" height="900" fill="url(#paperNoise)"/>
<g opacity="0.4">
<path d="M 0 0 L 350 0 L 300 220 L 0 200 Z" fill="#cfe3b0"/>
<path d="M 1300 0 L 1600 0 L 1600 280 L 1320 230 Z" fill="#c5ddb0"/>
<path d="M 0 650 L 220 600 L 320 900 L 0 900 Z" fill="#cfe3b0"/>
<path d="M 1200 620 L 1600 600 L 1600 900 L 1200 900 Z" fill="#c5ddb0"/>
</g>
<g fill="#b7d8a7" opacity="0.55">
<path d="M 921.8 298.5 L 927.0 300.7 L 931.7 298.4 L 926.3 296.1 L 921.8 298.5 Z"/>
<path d="M 899.8 270.6 L 904.6 271.4 L 899.8 270.6 Z"/>
<path d="M 565.8 229.5 L 564.0 236.2 L 568.4 236.5 L 571.7 230.0 L 565.8 229.5 Z"/>
<path d="M 992.6 270.6 L 998.5 270.2 L 995.4 272.5 L 992.6 270.6 Z"/>
<path d="M 782.2 217.2 L 800.5 219.4 L 793.3 226.5 L 778.8 223.9 L 782.2 217.2 Z"/>
<path d="M 689.9 204.2 L 666.4 205.7 L 664.2 224.8 L 674.4 224.4 L 675.4 234.6 L 708.2 229.7 L 712.6 226.2 L 711.2 212.9 L 693.8 208.5 L 689.9 204.2 Z"/>
<path d="M 654.9 195.0 L 649.7 197.7 L 650.1 201.4 L 667.6 201.7 L 669.2 194.9 L 654.9 195.0 Z"/>
<path d="M 659.1 215.8 L 642.7 215.3 L 643.5 203.6 L 661.3 202.2 L 659.1 215.8 Z"/>
<path d="M 680.0 238.2 L 683.0 237.5 L 680.0 238.2 Z"/>
<path d="M 1170.6 399.7 L 1186.5 393.8 L 1191.9 393.9 L 1192.7 396.8 L 1172.5 406.0 L 1164.0 403.7 L 1170.6 399.7 Z"/>
<path d="M 1467.9 378.3 L 1474.4 381.1 L 1467.9 378.3 Z"/>
<path d="M 1126.6 330.4 L 1134.2 330.4 L 1134.2 328.2 L 1126.6 328.2 L 1126.6 330.4 Z"/>
<path d="M 1196.2 325.9 L 1196.5 328.4 L 1202.8 328.2 L 1202.6 325.7 L 1196.2 325.9 Z"/>
<path d="M 1219.2 338.4 L 1219.9 341.8 L 1227.2 341.5 L 1226.1 338.4 L 1219.2 338.4 Z"/>
<path d="M 1093.5 346.4 L 1093.4 349.4 L 1100.8 349.5 L 1100.5 346.3 L 1093.5 346.4 Z"/>
<path d="M 1105.7 286.3 L 1105.3 289.6 L 1110.6 291.0 L 1112.4 286.5 L 1105.7 286.3 Z"/>
<path d="M 1425.1 393.4 L 1431.3 393.6 L 1424.9 396.0 L 1425.1 393.4 Z"/>
<path d="M 472.0 316.1 L 477.3 315.7 L 478.8 320.7 L 472.6 320.3 L 472.0 316.1 Z"/>
<path d="M 1042.6 462.2 L 1051.7 462.7 L 1042.6 462.2 Z"/>
<path d="M 1072.7 460.5 L 1075.7 464.3 L 1079.6 463.6 L 1079.1 460.1 L 1072.7 460.5 Z"/>
<path d="M 805.2 379.9 L 812.4 379.6 L 813.8 386.5 L 806.1 386.7 L 805.2 379.9 Z"/>
<path d="M 838.0 398.9 L 842.2 398.8 L 842.6 402.2 L 838.4 402.4 L 838.0 398.9 Z"/>
<path d="M 1077.1 309.0 L 1081.8 312.2 L 1077.5 312.8 L 1077.1 309.0 Z"/>
<path d="M 1149.0 286.8 L 1146.8 289.3 L 1149.0 286.8 Z"/>
<path d="M 1179.3 306.4 L 1205.8 308.8 L 1182.1 318.4 L 1179.3 306.4 Z"/>
<path d="M 1162.2 361.9 L 1189.6 364.8 L 1172.5 368.7 L 1163.0 365.9 L 1162.2 361.9 Z"/>
<path d="M 1133.8 346.5 L 1139.6 346.3 L 1139.7 342.6 L 1133.8 346.5 Z"/>
<path d="M 1160.4 349.8 L 1171.5 349.4 L 1171.6 352.0 L 1160.4 352.2 L 1160.4 349.8 Z"/>
<path d="M 1045.7 404.5 L 1047.9 406.7 L 1039.0 408.6 L 1045.7 404.5 Z"/>
<path d="M 1042.9 411.4 L 1047.8 409.3 L 1056.4 420.3 L 1076.7 427.2 L 1093.9 428.0 L 1094.4 430.3 L 1093.0 432.9 L 1068.0 424.4 L 1069.5 427.0 L 1061.6 425.8 L 1042.9 411.4 Z"/>
<path d="M 1518.7 395.5 L 1528.3 396.1 L 1530.1 399.3 L 1521.8 400.7 L 1518.7 395.5 Z"/>
<path d="M 1299.6 516.2 L 1303.1 517.6 L 1299.6 516.2 Z"/>
<path d="M 1299.6 513.2 L 1301.7 512.9 L 1297.7 508.9 L 1299.6 513.2 Z"/>
<path d="M 1184.0 484.8 L 1202.4 473.4 L 1196.3 464.0 L 1206.4 459.7 L 1207.5 454.7 L 1225.0 466.0 L 1245.4 472.5 L 1225.1 485.1 L 1191.9 492.7 L 1184.0 484.8 Z"/>
<path d="M 1109.7 254.0 L 1113.7 255.5 L 1108.3 256.4 L 1109.7 254.0 Z"/>
<path d="M 877.9 289.9 L 880.8 288.7 L 876.6 288.3 L 877.9 289.9 Z"/>
<path d="M 876.4 188.7 L 882.4 186.7 L 883.2 192.0 L 879.3 192.3 L 876.4 188.7 Z"/>
<path d="M 899.8 277.9 L 903.0 280.5 L 899.8 277.9 Z"/>
<path d="M 716.7 218.4 L 728.5 215.9 L 720.5 221.8 L 716.8 221.6 L 716.7 218.4 Z"/>
<path d="M 263.5 369.0 L 275.6 369.4 L 275.6 371.6 L 263.6 371.3 L 263.5 369.0 Z"/>
<path d="M 270.4 363.1 L 275.0 364.2 L 270.4 363.1 Z"/>
<path d="M 965.8 210.5 L 974.9 210.2 L 975.0 212.9 L 965.5 215.8 L 965.8 210.5 Z"/>
<path d="M 381.5 326.6 L 392.6 326.3 L 393.1 332.5 L 377.3 333.3 L 381.5 326.6 Z"/>
<path d="M 964.2 384.0 L 964.2 386.2 L 969.8 384.1 L 964.2 384.0 Z"/>
<path d="M 895.4 22.2 L 896.4 19.3 L 890.1 20.4 L 895.4 22.2 Z"/>
<path d="M 869.8 33.7 L 865.7 33.7 L 864.4 38.1 L 870.0 37.2 L 869.8 33.7 Z"/>
<path d="M 963.6 7.6 L 967.0 6.4 L 963.6 7.6 Z"/>
<path d="M 944.5 5.1 L 939.1 6.8 L 944.5 5.1 Z"/>
<path d="M 882.5 91.5 L 877.2 92.9 L 882.5 91.5 Z"/>
<path d="M 799.9 105.9 L 835.6 91.2 L 843.7 78.2 L 855.3 78.3 L 855.2 93.4 L 844.9 104.4 L 817.3 104.5 L 816.5 109.2 L 810.6 110.4 L 799.9 105.9 Z"/>
<path d="M 788.4 12.4 L 793.7 12.4 L 788.4 12.4 Z"/>
<path d="M 934.9 185.1 L 929.1 187.5 L 934.6 189.1 L 934.9 185.1 Z"/>
<path d="M 923.9 199.4 L 918.3 201.7 L 921.3 206.8 L 931.2 205.5 L 930.2 199.8 L 923.9 199.4 Z"/>
<path d="M 950.2 203.5 L 951.3 207.4 L 960.1 206.8 L 959.8 203.2 L 950.2 203.5 Z"/>
<path d="M 438.6 509.9 L 451.2 510.9 L 449.3 517.4 L 441.1 516.7 L 441.7 514.4 L 437.9 514.1 L 438.6 509.9 Z"/>
<path d="M 399.3 524.0 L 404.1 524.2 L 399.3 524.0 Z"/>
<path d="M 281.6 327.2 L 264.2 340.8 L 271.3 341.5 L 281.6 327.2 Z"/>
<path d="M 625.0 73.1 L 628.3 75.4 L 631.1 73.4 L 625.0 73.1 Z"/>
<path d="M 617.6 250.9 L 627.7 240.6 L 617.6 250.9 Z"/>
<path d="M 653.3 241.8 L 677.1 236.4 L 653.3 241.8 Z"/>
<path d="M 953.3 544.6 L 952.1 547.2 L 968.7 546.4 L 953.3 544.6 Z"/>
<path d="M 945.9 533.6 L 950.1 534.0 L 945.9 533.6 Z"/>
<path d="M 939.7 545.8 L 944.4 547.5 L 939.7 545.8 Z"/>
<path d="M 947.4 564.1 L 950.2 565.4 L 947.4 564.1 Z"/>
<path d="M 932.4 536.5 L 931.5 539.2 L 920.8 537.0 L 932.4 536.5 Z"/>
<path d="M 900.8 542.6 L 907.9 544.4 L 900.8 542.6 Z"/>
<path d="M 862.6 315.5 L 867.7 315.4 L 864.0 317.5 L 862.6 315.5 Z"/>
<path d="M 860.1 322.9 L 851.3 323.4 L 854.9 325.8 L 860.1 322.9 Z"/>
<path d="M 885.2 309.8 L 885.7 313.4 L 881.4 313.7 L 885.2 309.8 Z"/>
<path d="M 746.0 243.0 L 744.7 245.3 L 750.4 243.7 L 746.0 243.0 Z"/>
<path d="M 432.6 598.0 L 431.7 601.2 L 443.9 602.6 L 444.6 598.6 L 432.6 598.0 Z"/>
<path d="M 447.7 602.7 L 429.3 601.7 L 428.1 606.1 L 447.7 609.2 L 447.7 602.7 Z"/>
<path d="M 1493.3 29.3 L 1495.0 30.8 L 1488.9 31.4 L 1493.3 29.3 Z"/>
<path d="M 656.9 427.1 L 667.4 426.6 L 667.8 429.1 L 657.3 429.6 L 656.9 427.1 Z"/>
<path d="M 726.8 426.1 L 726.3 421.9 L 731.3 421.7 L 732.2 425.3 L 726.8 426.1 Z"/>
<path d="M 610.6 429.0 L 611.1 432.2 L 617.7 431.9 L 616.4 428.7 L 610.6 429.0 Z"/>
<path d="M 1193.1 237.8 L 1199.3 239.1 L 1193.1 237.8 Z"/>
<path d="M 581.0 377.4 L 581.6 374.4 L 584.7 374.6 L 581.0 377.4 Z"/>
<path d="M 1211.7 236.8 L 1208.5 234.2 L 1211.7 236.8 Z"/>
<path d="M 736.7 315.7 L 730.3 316.2 L 736.7 315.7 Z"/>
<path d="M 752.8 322.6 L 757.5 319.7 L 752.0 319.0 L 752.8 322.6 Z"/>
<path d="M 1218.0 462.1 L 1217.0 464.4 L 1220.5 463.8 L 1218.0 462.1 Z"/>
<path d="M 1185.7 209.7 L 1192.0 207.7 L 1194.8 210.7 L 1190.0 212.4 L 1185.7 209.7 Z"/>
<path d="M 1230.2 208.5 L 1237.6 204.6 L 1240.7 206.2 L 1230.2 208.5 Z"/>
<path d="M 1273.8 241.6 L 1278.0 242.9 L 1273.8 241.6 Z"/>
<path d="M 1410.4 88.1 L 1418.3 87.2 L 1420.4 91.8 L 1417.7 95.7 L 1412.8 94.7 L 1408.8 92.7 L 1410.4 88.1 Z"/>
<path d="M 557.2 426.3 L 557.2 429.4 L 557.2 426.3 Z"/>
<path d="M 1027.6 376.5 L 1041.8 373.4 L 1041.5 376.2 L 1035.0 378.1 L 1027.6 376.5 Z"/>
<path d="M 990.5 365.5 L 991.8 367.5 L 990.5 365.5 Z"/>
<path d="M 998.4 372.7 L 1003.3 373.5 L 998.4 372.7 Z"/>
<path d="M 1043.6 374.9 L 1049.2 378.5 L 1042.3 377.8 L 1043.6 374.9 Z"/>
<path d="M 726.7 338.9 L 729.8 338.0 L 731.1 341.2 L 726.7 338.9 Z"/>
<path d="M 1316.4 495.5 L 1325.0 495.5 L 1316.4 495.5 Z"/>
<path d="M 1180.3 541.1 L 1198.8 536.1 L 1211.6 549.9 L 1191.5 555.5 L 1180.3 541.1 Z"/>
<path d="M 1180.0 519.1 L 1182.1 514.2 L 1180.0 519.1 Z"/>
<path d="M 1264.7 425.2 L 1268.0 427.1 L 1264.7 425.2 Z"/>
<path d="M 1256.1 439.9 L 1258.8 441.9 L 1256.1 439.9 Z"/>
<path d="M 1097.0 401.4 L 1092.3 401.7 L 1091.7 398.8 L 1096.3 398.5 L 1097.0 401.4 Z"/>
<path d="M 1340.0 281.9 L 1337.5 280.2 L 1342.7 274.8 L 1351.3 271.8 L 1356.2 274.1 L 1340.0 281.9 Z"/>
<path d="M 1334.6 400.8 L 1335.6 396.7 L 1341.7 396.3 L 1340.2 401.0 L 1334.6 400.8 Z"/>
<path d="M 1199.0 387.6 L 1204.9 388.8 L 1199.0 387.6 Z"/>
<path d="M 1108.7 176.4 L 1113.6 174.3 L 1118.4 178.0 L 1114.2 179.5 L 1108.7 176.4 Z"/>
<path d="M 1032.6 409.5 L 1038.1 410.7 L 1047.8 406.5 L 1048.9 402.8 L 1055.3 403.0 L 1073.8 395.2 L 1070.0 393.2 L 1079.8 389.3 L 1072.4 389.3 L 1076.1 387.7 L 1077.0 380.7 L 1068.0 374.5 L 1038.7 372.6 L 1027.2 376.5 L 1007.2 374.8 L 1002.7 372.9 L 1003.2 367.1 L 989.1 372.1 L 1026.7 383.7 L 1025.1 386.3 L 1032.6 409.5 Z"/>
<path d="M 1078.0 634.0 L 1069.2 628.4 L 1085.5 626.3 L 1086.5 629.5 L 1078.0 634.0 Z"/>
<path d="M 1349.7 243.4 L 1361.2 239.8 L 1349.7 243.4 Z"/>
<path d="M 534.6 459.3 L 540.9 458.9 L 540.5 462.1 L 534.6 459.3 Z"/>
<path d="M 575.7 485.9 L 563.3 485.7 L 565.6 488.2 L 575.7 485.9 Z"/>
<path d="M 1190.1 158.8 L 1192.4 155.6 L 1198.5 156.8 L 1190.1 158.8 Z"/>
<path d="M 1187.8 145.3 L 1193.2 144.1 L 1191.3 147.1 L 1187.8 145.3 Z"/>
<path d="M 1219.0 140.1 L 1221.3 138.2 L 1213.6 138.9 L 1219.0 140.1 Z"/>
<path d="M 1213.8 149.0 L 1211.8 149.8 L 1213.8 149.0 Z"/>
<path d="M 1273.9 160.1 L 1276.1 161.3 L 1273.9 160.1 Z"/>
<path d="M 875.4 499.4 L 872.7 501.7 L 881.3 501.2 L 875.4 499.4 Z"/>
<path d="M 887.8 512.6 L 887.7 515.1 L 892.6 514.6 L 887.8 512.6 Z"/>
<path d="M 459.2 89.5 L 488.7 87.5 L 485.9 78.5 L 467.4 79.4 L 468.6 83.1 L 457.1 84.3 L 459.2 89.5 Z"/>
<path d="M 792.7 406.2 L 795.3 409.4 L 792.7 406.2 Z"/>
<path d="M 1418.8 555.0 L 1454.3 547.6 L 1437.0 552.3 L 1427.0 560.5 L 1418.8 555.0 Z"/>
<path d="M 1454.8 562.1 L 1454.3 557.6 L 1447.9 560.3 L 1436.1 558.4 L 1454.8 562.1 Z"/>
<path d="M 822.2 381.7 L 822.5 384.3 L 831.1 383.7 L 830.7 381.3 L 822.2 381.7 Z"/>
<path d="M 839.3 496.6 L 839.4 500.1 L 842.1 500.1 L 841.9 496.6 L 839.3 496.6 Z"/>
<path d="M 781.0 329.9 L 784.6 334.1 L 789.9 332.8 L 786.1 328.6 L 781.0 329.9 Z"/>
<path d="M 1459.6 257.3 L 1462.7 258.3 L 1459.6 257.3 Z"/>
<path d="M 729.9 215.3 L 727.7 214.1 L 733.1 211.4 L 732.1 208.7 L 733.4 212.7 L 729.9 215.3 Z"/>
<path d="M 714.2 267.7 L 721.6 268.4 L 714.2 267.7 Z"/>
<path d="M 733.5 201.6 L 733.1 203.6 L 737.0 202.4 L 733.5 201.6 Z"/>
<path d="M 747.0 177.1 L 750.1 180.1 L 750.6 177.4 L 747.0 177.1 Z"/>
<path d="M 775.4 184.1 L 777.1 186.1 L 775.4 184.1 Z"/>
<path d="M 726.3 174.8 L 728.4 175.7 L 726.3 174.8 Z"/>
<path d="M 727.1 142.2 L 726.6 139.0 L 723.5 139.2 L 727.1 142.2 Z"/>
<path d="M 742.5 132.1 L 742.1 123.5 L 744.3 123.0 L 745.6 132.2 L 742.5 132.1 Z"/>
<path d="M 819.3 235.8 L 813.2 238.6 L 816.3 240.6 L 821.2 237.0 L 819.3 235.8 Z"/>
<path d="M 774.5 271.1 L 773.7 273.2 L 768.1 270.4 L 774.5 271.1 Z"/>
<path d="M 801.1 257.3 L 797.6 259.4 L 802.3 262.2 L 806.2 260.1 L 801.1 257.3 Z"/>
<path d="M 856.2 240.2 L 860.8 238.9 L 867.8 243.9 L 860.8 245.4 L 856.2 240.2 Z"/>
<path d="M 854.5 215.4 L 858.3 217.1 L 869.1 213.0 L 867.2 210.8 L 854.5 215.4 Z"/>
<path d="M 862.9 215.8 L 866.0 217.6 L 870.9 215.2 L 862.9 215.8 Z"/>
<path d="M 769.8 159.7 L 775.0 161.1 L 769.8 159.7 Z"/>
<path d="M 833.7 108.9 L 836.3 109.5 L 833.7 108.9 Z"/>
<path d="M 789.8 127.4 L 791.3 129.7 L 789.8 127.4 Z"/>
<path d="M 766.3 174.5 L 763.1 174.9 L 766.3 174.5 Z"/>
<path d="M 808.1 129.9 L 813.7 130.1 L 808.1 129.9 Z"/>
<path d="M 803.4 117.2 L 803.2 124.3 L 813.3 124.2 L 814.4 117.5 L 803.4 117.2 Z"/>
<path d="M 796.4 498.4 L 798.4 498.9 L 796.4 498.4 Z"/>
<path d="M 986.0 39.3 L 994.5 45.9 L 990.1 50.4 L 979.4 47.9 L 986.0 39.3 Z"/>
<path d="M 1337.4 290.1 L 1341.5 291.5 L 1337.4 290.1 Z"/>
<path d="M 1026.7 229.5 L 1032.9 225.9 L 1026.7 229.5 Z"/>
<path d="M 965.6 558.0 L 971.4 559.0 L 965.6 558.0 Z"/>
<path d="M 973.6 558.1 L 976.8 558.7 L 973.6 558.1 Z"/>
<path d="M 154.9 256.3 L 153.8 259.1 L 159.6 257.1 L 154.9 256.3 Z"/>
<path d="M 875.4 168.9 L 862.6 172.6 L 873.9 172.4 L 875.4 168.9 Z"/>
<path d="M 511.9 443.4 L 515.3 443.4 L 515.1 445.8 L 511.9 443.4 Z"/>
<path d="M 458.4 421.5 L 472.1 421.9 L 471.3 428.4 L 457.4 428.0 L 458.4 421.5 Z"/>
<path d="M 458.8 417.8 L 468.8 418.2 L 468.1 421.3 L 458.3 421.0 L 458.8 417.8 Z"/>
<path d="M 944.1 98.6 L 940.4 97.8 L 942.0 95.2 L 946.5 96.3 L 944.1 98.6 Z"/>
<path d="M 728.3 347.3 L 724.7 348.2 L 727.4 351.2 L 731.0 350.2 L 728.3 347.3 Z"/>
<path d="M 1413.2 71.5 L 1416.0 73.1 L 1413.2 71.5 Z"/>
<path d="M 910.3 524.5 L 928.4 523.6 L 932.9 536.4 L 912.5 535.1 L 910.3 524.5 Z"/>
<path d="M 1044.2 675.5 L 1038.8 689.2 L 1001.7 685.7 L 1017.1 676.5 L 1044.2 675.5 Z"/>
<path d="M 920.4 801.9 L 922.3 802.6 L 920.4 801.9 Z"/>
<path d="M 938.1 735.2 L 942.7 736.4 L 938.1 735.2 Z"/>
<path d="M 543.4 560.8 L 549.5 561.8 L 543.4 560.8 Z"/>
<path d="M 556.0 568.0 L 561.6 569.7 L 556.0 568.0 Z"/>
<path d="M 773.3 309.5 L 775.5 312.5 L 781.9 311.4 L 773.3 309.5 Z"/>
<path d="M 1024.4 775.0 L 1028.8 775.8 L 1024.4 775.0 Z"/>
<path d="M 111.7 428.9 L 113.8 411.9 L 134.7 412.4 L 132.4 429.7 L 111.7 428.9 Z"/>
<path d="M 92.1 645.5 L 96.5 645.0 L 96.5 649.6 L 91.9 649.5 L 92.1 645.5 Z"/>
<path d="M 817.1 214.0 L 813.8 213.4 L 807.9 218.9 L 817.1 214.0 Z"/>
<path d="M 807.7 219.0 L 809.9 219.6 L 801.6 227.9 L 793.0 232.8 L 807.7 219.0 Z"/>
<path d="M 912.3 855.9 L 919.5 859.0 L 918.5 861.1 L 912.3 855.9 Z"/>
<path d="M 897.4 896.3 L 901.9 897.3 L 897.4 896.3 Z"/>
<path d="M 1027.7 842.7 L 1031.4 843.7 L 1029.4 846.4 L 1026.0 845.5 L 1027.7 842.7 Z"/>
<path d="M 1011.6 841.0 L 1017.3 841.4 L 1015.3 844.1 L 1011.6 841.0 Z"/>
<path d="M 997.8 838.6 L 1000.9 839.6 L 995.3 840.5 L 997.8 838.6 Z"/>
<path d="M 435.1 774.4 L 443.6 771.9 L 434.6 772.1 L 435.1 774.4 Z"/>
<path d="M 525.3 829.1 L 530.4 827.0 L 525.3 829.1 Z"/>
<path d="M 528.8 750.7 L 532.1 752.1 L 528.8 750.7 Z"/>
<path d="M 1041.1 651.5 L 1036.7 651.5 L 1036.8 654.5 L 1040.8 654.6 L 1041.1 651.5 Z"/>
<path d="M 135.1 393.8 L 131.1 393.7 L 130.7 397.9 L 134.6 398.1 L 135.1 393.8 Z"/>
<path d="M 1480.2 276.6 L 1478.0 277.4 L 1480.2 276.6 Z"/>
<path d="M 410.3 181.4 L 404.8 185.8 L 419.1 190.6 L 428.2 190.1 L 431.3 185.3 L 435.0 185.4 L 423.1 179.1 L 410.3 181.4 Z"/>
<path d="M 5.2 564.4 L 6.9 566.8 L 5.2 564.4 Z"/>
<path d="M 1.4 561.8 L 1.3 564.1 L 7.1 564.2 L 7.2 561.8 L 1.4 561.8 Z"/>
<path d="M 6.4 588.4 L 10.2 588.4 L 9.9 592.7 L 6.0 592.6 L 6.4 588.4 Z"/>
<path d="M 546.5 185.0 L 541.3 184.0 L 536.2 187.2 L 544.0 188.8 L 546.5 185.0 Z"/>
<path d="M 996.7 327.6 L 988.9 330.8 L 995.8 333.2 L 998.1 331.8 L 996.7 327.6 Z"/>
<path d="M 1428.4 226.8 L 1432.2 225.8 L 1433.3 229.6 L 1428.9 230.0 L 1428.4 226.8 Z"/>
<path d="M 1330.5 221.1 L 1335.3 223.4 L 1330.5 221.1 Z"/>
<path d="M 7.5 541.0 L 14.0 541.6 L 13.2 544.4 L 7.0 543.2 L 7.5 541.0 Z"/>
<path d="M 608.5 188.0 L 616.4 192.4 L 616.5 195.4 L 605.1 194.3 L 608.5 188.0 Z"/>
<path d="M 581.9 205.7 L 580.1 208.6 L 584.6 209.3 L 586.5 206.6 L 581.9 205.7 Z"/>
<path d="M 745.7 296.4 L 739.4 298.6 L 741.4 300.8 L 748.0 298.8 L 745.7 296.4 Z"/>
<path d="M 490.4 240.6 L 484.8 242.2 L 485.6 244.3 L 493.0 242.9 L 490.4 240.6 Z"/>
<path d="M 508.3 111.7 L 510.7 114.0 L 507.1 114.1 L 508.3 111.7 Z"/>
<path d="M 587.2 140.6 L 586.6 143.1 L 592.8 143.7 L 593.4 141.1 L 587.2 140.6 Z"/>
<path d="M 1508.7 116.0 L 1514.6 116.2 L 1508.7 116.0 Z"/>
<path d="M 1296.6 239.6 L 1300.8 241.0 L 1296.6 239.6 Z"/>
<path d="M 758.8 480.9 L 756.5 482.2 L 758.8 480.9 Z"/>
<path d="M 734.6 479.5 L 735.2 486.0 L 739.0 486.0 L 737.9 479.3 L 734.6 479.5 Z"/>
<path d="M 889.6 539.1 L 894.0 539.9 L 889.6 539.1 Z"/>
<path d="M 1282.8 6.6 L 1289.6 8.8 L 1282.8 6.6 Z"/>
<path d="M 1221.0 5.2 L 1223.7 6.4 L 1221.0 5.2 Z"/>
<path d="M 1204.5 27.3 L 1207.4 28.5 L 1204.5 27.3 Z"/>
<path d="M 1212.0 31.8 L 1215.2 32.1 L 1212.0 31.8 Z"/>
<path d="M 904.5 290.1 L 907.4 288.3 L 913.5 291.4 L 910.2 293.1 L 904.5 290.1 Z"/>
<path d="M 1051.1 20.2 L 1060.5 20.4 L 1051.1 20.2 Z"/>
<path d="M 1051.8 13.0 L 1055.9 15.2 L 1051.8 13.0 Z"/>
<path d="M 693.5 302.0 L 696.7 303.1 L 693.5 302.0 Z"/>
<path d="M 429.6 735.2 L 424.1 744.5 L 437.5 744.1 L 461.7 735.5 L 429.6 735.2 Z"/>
<path d="M 403.9 508.3 L 411.1 508.6 L 409.1 519.2 L 398.7 518.0 L 399.1 513.0 L 403.5 512.9 L 403.9 508.3 Z"/>
<path d="M 415.5 514.2 L 419.1 514.9 L 415.5 514.2 Z"/>
<path d="M 417.6 553.7 L 412.0 553.3 L 411.1 556.4 L 417.6 553.7 Z"/>
<path d="M 432.1 548.1 L 433.9 549.5 L 432.1 548.1 Z"/>
<path d="M 554.0 97.9 L 556.8 97.7 L 557.4 101.1 L 554.0 97.9 Z"/>
<path d="M 1223.7 361.9 L 1226.3 363.0 L 1222.0 363.6 L 1223.7 361.9 Z"/>
<path d="M 536.1 566.7 L 538.0 569.8 L 536.1 566.7 Z"/>
<path d="M 1447.6 195.2 L 1451.9 197.0 L 1447.6 195.2 Z"/>
<path d="M 1451.8 189.3 L 1456.2 188.7 L 1451.8 189.3 Z"/>
<path d="M 397.2 502.8 L 395.9 504.5 L 402.7 504.8 L 397.2 502.8 Z"/>
<path d="M 1543.3 168.2 L 1536.6 170.5 L 1543.3 168.2 Z"/>
<path d="M 1546.9 174.1 L 1541.7 175.7 L 1546.9 174.1 Z"/>
<path d="M 1550.4 177.1 L 1543.9 179.2 L 1550.4 177.1 Z"/>
<path d="M 1551.2 176.8 L 1556.5 175.5 L 1551.2 176.8 Z"/>
<path d="M 1555.8 171.5 L 1552.3 172.3 L 1555.8 171.5 Z"/>
<path d="M 1554.2 170.0 L 1551.1 170.7 L 1554.2 170.0 Z"/>
<path d="M 1556.9 173.1 L 1558.5 175.4 L 1556.9 173.1 Z"/>
<path d="M 1554.7 173.3 L 1551.6 173.9 L 1554.7 173.3 Z"/>
<path d="M 1565.7 169.2 L 1563.8 170.7 L 1565.7 169.2 Z"/>
<path d="M 1552.1 169.4 L 1547.9 168.7 L 1552.1 169.4 Z"/>
<path d="M 1546.4 169.6 L 1542.9 168.4 L 1546.4 169.6 Z"/>
<path d="M 1535.1 169.2 L 1542.9 168.4 L 1535.1 169.2 Z"/>
<path d="M 1537.9 165.5 L 1540.9 166.1 L 1537.9 165.5 Z"/>
<path d="M 1543.5 164.2 L 1546.2 164.6 L 1543.5 164.2 Z"/>
<path d="M 1542.8 166.2 L 1541.4 164.5 L 1542.8 166.2 Z"/>
<path d="M 1537.5 160.9 L 1533.9 161.5 L 1537.5 160.9 Z"/>
<path d="M 1537.7 161.5 L 1535.2 161.8 L 1537.7 161.5 Z"/>
<path d="M 1536.5 166.9 L 1538.7 167.3 L 1536.5 166.9 Z"/>
<path d="M 1538.7 166.8 L 1541.4 166.8 L 1538.7 166.8 Z"/>
<path d="M 1544.0 177.3 L 1542.0 177.9 L 1544.0 177.3 Z"/>
<path d="M 1550.6 167.4 L 1546.7 168.2 L 1550.6 167.4 Z"/>
</g>
<g fill="#9ec9e6" opacity="0.45">
<path d="M 141.3 760.2 L 245.6 736.8 L 326.3 730.3 L 331.6 733.8 L 353.9 713.8 L 353.8 707.6 L 358.5 703.3 L 396.3 680.0 L 418.1 678.2 L 426.6 682.7 L 432.9 694.4 L 440.3 688.0 L 437.4 679.1 L 425.5 672.8 L 391.6 676.0 L 350.8 699.4 L 328.4 727.1 L 233.8 731.4 L 136.8 754.3 L 141.3 760.2 Z"/>
<path d="M 603.0 658.0 L 606.7 658.2 L 610.8 639.1 L 606.1 641.1 L 603.0 658.0 Z"/>
<path d="M 609.2 637.6 L 625.3 637.1 L 633.0 641.7 L 631.1 637.4 L 621.8 634.5 L 609.2 637.6 Z"/>
<path d="M 881.4 617.4 L 906.8 600.9 L 881.4 617.4 Z"/>
<path d="M 980.7 562.4 L 1167.7 500.7 L 1154.6 489.2 L 1165.7 502.1 L 980.7 562.4 Z"/>
<path d="M 125.5 709.7 L 134.7 706.5 L 121.4 707.4 L 125.0 696.3 L 123.8 704.6 L 159.4 705.5 L 125.5 709.7 Z"/>
<path d="M 865.7 630.9 L 875.5 642.9 L 887.9 644.5 L 901.2 636.2 L 900.3 624.8 L 905.2 619.8 L 897.7 621.7 L 897.6 634.2 L 886.9 642.0 L 878.5 641.6 L 875.1 634.1 L 868.9 629.3 L 865.7 630.9 Z"/>
<path d="M 231.2 348.8 L 242.6 349.2 L 288.4 370.1 L 323.4 376.0 L 345.8 385.5 L 324.1 374.7 L 286.5 368.0 L 244.1 347.6 L 231.2 348.8 Z"/>
<path d="M 727.9 664.4 L 723.0 664.3 L 743.5 670.1 L 765.0 670.7 L 786.2 656.2 L 788.2 650.0 L 784.4 649.7 L 768.8 667.2 L 760.5 669.9 L 727.9 664.4 Z"/>
<path d="M -12.0 748.0 L 107.0 743.5 L 115.9 738.4 L 113.3 722.8 L 115.8 717.2 L 127.3 710.6 L 121.4 707.4 L 111.9 717.5 L 112.7 735.9 L 106.6 740.6 L -12.0 748.0 Z"/>
<path d="M 409.4 624.3 L 535.2 616.1 L 409.4 624.3 Z"/>
<path d="M 911.9 594.4 L 915.9 588.8 L 954.9 576.0 L 977.1 560.8 L 980.7 562.4 L 957.2 576.1 L 917.5 588.9 L 911.9 594.4 Z"/>
<path d="M 159.3 707.4 L 214.2 707.1 L 244.2 699.9 L 281.8 665.3 L 331.9 646.3 L 349.8 637.0 L 360.3 625.1 L 409.5 622.7 L 370.4 621.5 L 354.3 625.0 L 347.3 635.9 L 276.4 665.8 L 241.0 698.5 L 213.6 705.8 L 159.3 707.4 Z"/>
<path d="M 709.2 231.2 L 735.6 212.9 L 731.1 203.2 L 744.8 171.0 L 739.8 156.5 L 742.2 150.9 L 737.9 156.4 L 743.0 171.7 L 729.3 202.9 L 733.9 212.8 L 709.2 231.2 Z"/>
<path d="M 503.7 368.2 L 529.3 341.2 L 548.2 329.6 L 554.1 314.1 L 564.8 306.8 L 567.5 299.0 L 562.5 290.2 L 565.7 282.1 L 560.4 289.4 L 564.1 304.9 L 550.7 315.9 L 547.2 328.5 L 527.6 341.2 L 503.7 368.2 Z"/>
<path d="M 565.7 282.1 L 571.1 270.3 L 593.4 269.3 L 625.9 275.9 L 628.7 261.0 L 646.4 248.5 L 709.2 231.2 L 674.6 237.8 L 643.6 248.6 L 626.7 261.3 L 625.5 275.1 L 593.5 268.4 L 574.8 269.2 L 569.0 270.2 L 565.7 282.1 Z"/>
<path d="M 163.2 934.6 L 175.9 925.1 L 183.8 913.2 L 201.8 902.0 L 210.1 889.4 L 206.1 889.7 L 195.2 903.5 L 182.1 910.0 L 188.3 884.3 L 182.1 864.4 L 172.2 867.1 L 177.0 868.3 L 181.2 882.7 L 177.4 883.7 L 182.1 887.1 L 177.2 913.6 L 170.3 923.9 L 162.1 924.4 L 164.7 928.0 L 110.9 965.0 L 69.5 974.5 L 30.2 974.3 L 10.1 969.9 L -5.3 955.6 L 0.9 953.1 L -6.2 954.4 L -30.0 926.3 L -36.4 906.4 L -56.8 882.7 L -71.1 869.4 L -80.7 874.4 L -47.1 903.6 L -38.6 927.9 L -7.3 963.4 L 6.9 973.0 L 25.8 978.8 L 71.5 978.9 L 112.3 968.6 L 161.4 935.8 L 169.0 941.4 L 183.8 942.7 L 195.2 953.2 L 191.5 962.3 L 197.4 969.8 L 196.3 973.7 L 225.5 994.3 L 231.3 1007.9 L 255.6 1017.1 L 257.2 1028.4 L 252.9 1032.4 L 263.8 1046.2 L 261.9 1052.1 L 269.5 1064.7 L 242.7 1079.6 L 268.6 1067.3 L 270.3 1062.9 L 262.3 1048.6 L 264.9 1045.8 L 253.5 1032.0 L 258.2 1028.2 L 256.6 1016.7 L 231.5 1007.1 L 237.8 1002.4 L 232.9 1003.5 L 223.8 991.7 L 197.2 972.9 L 208.7 965.2 L 206.5 955.3 L 225.7 955.3 L 233.6 951.2 L 225.1 955.0 L 205.6 955.3 L 208.2 965.1 L 199.0 969.3 L 193.5 963.4 L 195.2 949.7 L 184.2 940.1 L 163.2 934.6 Z"/>
<path d="M -65.3 394.8 L -32.7 394.1 L 40.8 363.6 L 80.6 351.5 L 141.8 348.3 L 195.2 358.3 L 231.2 348.8 L 221.0 345.7 L 192.7 355.0 L 143.4 343.7 L 86.4 347.2 L 43.8 358.0 L -32.3 387.3 L -68.7 390.6 L -65.3 394.8 Z"/>
<path d="M 344.0 386.3 L 373.4 401.0 L 476.8 403.3 L 483.2 400.8 L 485.6 392.4 L 504.8 376.5 L 502.1 368.1 L 501.4 379.2 L 484.9 390.5 L 480.8 400.5 L 473.7 402.3 L 373.5 399.5 L 344.0 386.3 Z"/>
<path d="M 629.3 645.4 L 632.3 652.2 L 636.1 651.7 L 629.3 645.4 Z"/>
<path d="M 1200.9 705.4 L 1259.4 712.7 L 1331.9 708.2 L 1377.9 710.1 L 1504.6 775.3 L 1512.9 789.9 L 1513.0 806.0 L 1525.9 813.6 L 1543.3 817.4 L 1587.4 814.2 L 1547.7 816.3 L 1525.5 811.7 L 1513.2 803.1 L 1515.4 786.6 L 1509.2 774.4 L 1382.2 706.5 L 1253.2 709.6 L 1203.8 701.7 L 1200.9 705.4 Z"/>
<path d="M 432.9 694.4 L 447.8 699.9 L 480.1 697.9 L 510.6 685.9 L 501.2 683.3 L 490.2 689.7 L 492.8 685.0 L 505.0 682.3 L 551.9 692.3 L 546.7 689.1 L 571.6 681.7 L 567.2 677.3 L 540.9 681.8 L 500.7 679.6 L 474.2 693.9 L 439.4 691.7 L 432.9 694.4 Z"/>
<path d="M 571.6 681.7 L 633.0 661.2 L 722.1 659.8 L 758.2 655.6 L 821.5 629.7 L 878.7 624.1 L 903.3 611.9 L 898.6 609.1 L 883.4 617.6 L 809.6 628.1 L 762.0 650.5 L 626.1 655.9 L 567.2 677.3 L 571.6 681.7 Z"/>
<path d="M 681.3 232.3 L 677.9 232.1 L 678.4 223.8 L 681.1 223.8 L 681.3 232.3 Z"/>
<path d="M 664.4 214.8 L 663.4 208.5 L 661.7 214.9 L 664.4 214.8 Z"/>
<path d="M 1445.3 58.4 L 1455.5 58.9 L 1445.3 58.4 Z"/>
<path d="M 991.8 48.1 L 1009.7 46.1 L 995.5 50.3 L 991.8 48.1 Z"/>
<path d="M 1014.4 55.5 L 1028.3 57.2 L 1015.3 59.8 L 1014.4 55.5 Z"/>
<path d="M 1460.1 332.2 L 1466.7 322.1 L 1474.9 328.7 L 1460.1 332.2 Z"/>
<path d="M 1213.3 724.6 L 1219.0 726.8 L 1213.3 724.6 Z"/>
<path d="M 514.5 483.9 L 517.1 484.2 L 514.5 483.9 Z"/>
<path d="M 1320.6 207.8 L 1323.6 208.6 L 1320.6 207.8 Z"/>
<path d="M 251.8 504.3 L 255.5 503.4 L 251.8 504.3 Z"/>
<path d="M 1053.2 473.5 L 1055.8 479.1 L 1070.9 476.1 L 1068.0 471.4 L 1053.2 473.5 Z"/>
<path d="M 1428.3 73.0 L 1431.3 72.8 L 1428.3 73.0 Z"/>
<path d="M 1372.1 224.4 L 1375.4 224.4 L 1372.1 224.4 Z"/>
<path d="M 880.3 447.0 L 893.8 449.5 L 880.9 451.3 L 880.3 447.0 Z"/>
<path d="M 1036.8 410.8 L 1053.0 425.6 L 1079.7 433.5 L 1095.4 433.4 L 1068.0 424.4 L 1069.5 427.0 L 1061.6 425.8 L 1044.8 412.1 L 1036.8 410.8 Z"/>
<path d="M 1142.0 426.7 L 1144.7 426.9 L 1142.0 426.7 Z"/>
<path d="M 225.3 346.1 L 233.2 338.2 L 256.0 333.7 L 227.1 337.7 L 221.0 345.7 L 225.3 346.1 Z"/>
<path d="M 1571.3 252.6 L 1573.9 253.0 L 1571.3 252.6 Z"/>
<path d="M 1544.0 250.5 L 1550.1 253.9 L 1544.0 250.5 Z"/>
<path d="M 1589.5 669.6 L 1586.8 670.4 L 1589.5 669.6 Z"/>
<path d="M 1571.0 682.8 L 1564.9 686.0 L 1568.8 687.3 L 1571.0 682.8 Z"/>
<path d="M 1583.6 635.2 L 1579.1 639.1 L 1585.4 639.1 L 1583.6 635.2 Z"/>
<path d="M 1538.7 625.2 L 1549.6 624.4 L 1538.7 625.2 Z"/>
<path d="M 1598.6 698.1 L 1597.1 700.2 L 1602.1 699.4 L 1598.6 698.1 Z"/>
<path d="M 436.2 703.5 L 421.0 722.9 L 436.2 703.5 Z"/>
<path d="M 706.8 201.3 L 709.2 202.3 L 706.8 201.3 Z"/>
<path d="M 1314.3 517.9 L 1319.4 518.5 L 1314.3 517.9 Z"/>
<path d="M 1335.1 502.0 L 1362.5 504.2 L 1349.5 500.1 L 1335.1 502.0 Z"/>
<path d="M 475.9 710.4 L 470.8 716.0 L 471.9 710.3 L 475.9 710.4 Z"/>
<path d="M 829.5 65.7 L 826.7 50.0 L 820.8 45.1 L 821.6 31.2 L 840.6 35.9 L 838.0 52.0 L 829.5 65.7 Z"/>
<path d="M 839.6 75.8 L 832.3 76.0 L 845.2 47.2 L 853.8 46.9 L 855.8 54.8 L 850.8 71.4 L 839.6 75.8 Z"/>
<path d="M 844.0 100.7 L 850.7 94.8 L 844.0 100.7 Z"/>
<path d="M 964.6 542.3 L 954.0 544.4 L 964.6 542.3 Z"/>
<path d="M 945.6 550.9 L 947.7 557.5 L 948.4 551.0 L 945.6 550.9 Z"/>
<path d="M 946.1 533.0 L 948.8 529.8 L 946.1 533.0 Z"/>
<path d="M 941.8 568.0 L 944.8 566.5 L 941.8 568.0 Z"/>
<path d="M 952.2 565.4 L 960.4 564.7 L 952.2 565.4 Z"/>
<path d="M 1330.8 135.3 L 1349.8 131.9 L 1327.9 137.2 L 1330.8 135.3 Z"/>
<path d="M 1054.3 375.6 L 1057.8 375.1 L 1054.3 375.6 Z"/>
<path d="M 988.3 361.6 L 1002.8 353.8 L 988.3 361.6 Z"/>
<path d="M 989.3 363.8 L 996.8 363.3 L 989.3 363.8 Z"/>
<path d="M 1094.8 461.2 L 1094.5 458.0 L 1109.6 460.1 L 1094.8 461.2 Z"/>
<path d="M 744.0 472.0 L 762.4 469.9 L 744.0 472.0 Z"/>
<path d="M 1462.3 259.6 L 1464.9 260.4 L 1462.3 259.6 Z"/>
<path d="M 977.1 560.8 L 988.4 548.7 L 977.1 560.8 Z"/>
<path d="M 1009.9 55.2 L 1000.0 54.2 L 1011.9 57.1 L 1009.9 55.2 Z"/>
<path d="M 927.5 518.8 L 931.8 519.2 L 927.5 518.8 Z"/>
<path d="M 915.9 515.6 L 923.7 515.1 L 925.0 520.1 L 917.9 520.5 L 915.9 515.6 Z"/>
<path d="M 274.8 900.1 L 271.0 892.5 L 266.8 892.4 L 271.1 900.8 L 274.8 900.1 Z"/>
<path d="M 271.0 892.5 L 274.1 890.8 L 268.1 883.9 L 263.9 884.3 L 266.8 892.4 L 271.0 892.5 Z"/>
<path d="M 263.9 884.3 L 241.9 881.5 L 256.3 879.5 L 268.1 883.9 L 263.9 884.3 Z"/>
<path d="M 241.9 881.5 L 222.4 880.3 L 216.7 884.5 L 241.9 881.5 Z"/>
<path d="M 216.7 884.5 L 206.1 889.7 L 209.5 884.3 L 218.0 882.1 L 216.7 884.5 Z"/>
<path d="M 1007.5 163.9 L 1014.2 166.3 L 1007.5 163.9 Z"/>
<path d="M 407.7 184.4 L 416.3 183.5 L 407.7 184.4 Z"/>
<path d="M 86.9 831.5 L 80.9 831.4 L 80.3 828.0 L 170.3 855.5 L 159.4 859.5 L 139.9 847.7 L 86.9 831.5 Z"/>
<path d="M 60.4 822.5 L 67.8 818.0 L 79.3 825.5 L 78.5 831.3 L 60.4 822.5 Z"/>
<path d="M -314.4 620.0 L -233.8 617.0 L -113.8 601.0 L -23.1 597.5 L 81.7 598.6 L 107.6 611.6 L 151.5 611.3 L 187.8 616.9 L 151.6 611.1 L 107.9 611.5 L 81.5 598.4 L -26.6 597.1 L -114.7 600.6 L -239.5 616.7 L -314.4 620.0 Z"/>
<path d="M 28.8 519.8 L 35.5 501.8 L 46.9 501.8 L 54.1 495.0 L 91.8 495.3 L 54.3 495.1 L 47.2 502.0 L 35.8 502.0 L 28.8 519.8 Z"/>
<path d="M -17.2 514.8 L 29.2 519.9 L -17.2 514.8 Z"/>
<path d="M 819.6 83.4 L 839.2 53.6 L 842.1 36.0 L 849.6 22.2 L 840.4 5.1 L 845.8 -7.9 L 845.7 -22.2 L 855.8 -40.4 L 847.3 -57.6 L 846.2 -69.5 L 834.0 -79.0 L 832.4 -94.7 L 837.8 -104.9 L 844.8 -108.2 L 845.6 -114.5 L 846.6 -108.5 L 835.4 -96.7 L 835.4 -81.9 L 848.7 -70.8 L 848.7 -60.9 L 858.2 -39.8 L 848.2 -22.0 L 847.9 -7.0 L 842.7 5.1 L 852.9 26.4 L 830.6 76.2 L 819.6 83.4 Z"/>
<path d="M 537.3 618.0 L 534.6 617.5 L 558.5 616.4 L 537.3 618.0 Z"/>
<path d="M 537.9 615.5 L 534.3 615.5 L 582.1 586.8 L 537.9 615.5 Z"/>
<path d="M 782.1 24.0 L 782.6 26.8 L 777.8 24.8 L 782.1 24.0 Z"/>
<path d="M 1074.9 578.0 L 1077.5 579.4 L 1074.9 578.0 Z"/>
<path d="M 632.5 323.2 L 635.4 323.9 L 632.5 323.2 Z"/>
</g>
<g fill="none" stroke="#5aa2d6" stroke-width="6" opacity="0.85" stroke-linecap="round" stroke-linejoin="round">
<path d="M 504.0 459.2 L 394.2 442.2"/>
<path d="M 1270.2 74.8 L 1255.0 82.4 L 1248.4 80.5"/>
<path d="M 394.2 442.2 L 367.7 438.6 L 290.4 440.5 L 255.7 446.3 L 196.2 462.6 L 120.7 464.5"/>
<path d="M 1272.4 23.3 L 1260.3 24.1 L 1252.4 29.9 L 1259.5 41.5 L 1276.2 53.4 L 1280.8 61.8 L 1276.4 70.6 L 1270.2 74.8"/>
<path d="M 959.4 165.1 L 924.8 186.3 L 911.5 189.1 L 896.9 187.8 L 872.3 175.6 L 858.4 176.2 L 848.5 181.1 L 832.4 203.4 L 801.8 230.2 L 752.2 268.4 L 731.0 275.9 L 691.0 283.8 L 622.0 308.4 L 586.7 307.1 L 565.2 312.9 L 558.5 319.2 L 557.1 324.9 L 568.2 365.4 L 563.0 378.6 L 538.0 408.4 L 539.5 444.7 L 531.6 452.8 L 510.4 459.0"/>
<path d="M 1248.4 80.5 L 1237.2 65.1 L 1219.0 61.0 L 1205.8 63.9 L 1196.2 68.0 L 1191.2 76.3 L 1205.0 90.4 L 1202.4 94.0 L 1190.4 99.6 L 1167.3 96.5 L 1136.5 114.3"/>
<path d="M 1136.5 114.3 L 1130.1 123.3 L 1114.7 133.4 L 1084.0 133.9 L 1071.4 140.5 L 1053.0 165.9 L 1038.4 175.2"/>
<path d="M 1013.2 171.5 L 992.6 160.7 L 969.7 160.8 L 959.4 165.1"/>
<path d="M 2619.1 -153.8 L 2580.3 -159.4 L 2556.8 -155.2 L 2535.7 -155.7 L 2479.7 -140.5 L 2407.5 -131.2 L 2385.1 -124.4 L 2375.8 -117.9 L 2373.8 -111.8 L 2376.6 -104.1 L 2370.5 -97.1 L 2334.6 -108.8 L 2317.5 -110.7 L 2297.4 -108.0 L 2267.0 -111.1 L 2259.4 -110.4 L 2244.2 -99.5 L 2236.3 -97.7 L 2181.2 -103.3 L 2126.6 -99.2 L 2094.3 -110.2 L 2036.4 -116.8 L 2024.4 -112.9 L 2017.1 -98.2 L 2009.5 -96.4 L 1987.3 -96.7 L 1969.6 -105.1 L 1824.6 -100.2 L 1774.4 -111.4 L 1736.0 -95.6 L 1657.0 -95.5 L 1616.6 -99.4 L 1602.0 -111.5 L 1594.8 -112.4 L 1584.0 -109.6 L 1537.7 -84.1 L 1528.1 -58.0 L 1521.5 -49.1 L 1512.5 -51.1 L 1493.1 -62.9 L 1470.2 -67.5 L 1418.9 -70.1 L 1390.9 -63.8 L 1384.3 -58.8 L 1383.6 -49.3 L 1393.2 -34.4 L 1386.2 -27.4 L 1367.5 -24.0 L 1340.2 -28.6 L 1331.9 -26.3 L 1327.4 -23.1 L 1326.3 -13.1 L 1316.6 3.4 L 1315.0 21.6 L 1296.8 25.3 L 1272.4 23.3"/>
<path d="M 510.4 459.0 L 504.0 459.2"/>
<path d="M 1038.4 175.2 L 1027.3 178.0 L 1013.2 171.5"/>
<path d="M 120.7 464.5 L 76.8 461.0 L 10.9 448.0 L -3.2 444.1 L -24.2 432.7 L -53.7 424.7 L -161.6 421.4 L -230.2 409.6 L -302.3 405.5 L -336.2 400.1 L -344.9 395.6 L -381.2 394.4"/>
</g>
<g fill="none" stroke="#3d7fb1" stroke-width="2" opacity="0.8" stroke-linecap="round" stroke-linejoin="round">
<path d="M 504.0 459.2 L 394.2 442.2"/>
<path d="M 1270.2 74.8 L 1255.0 82.4 L 1248.4 80.5"/>
<path d="M 394.2 442.2 L 367.7 438.6 L 290.4 440.5 L 255.7 446.3 L 196.2 462.6 L 120.7 464.5"/>
<path d="M 1272.4 23.3 L 1260.3 24.1 L 1252.4 29.9 L 1259.5 41.5 L 1276.2 53.4 L 1280.8 61.8 L 1276.4 70.6 L 1270.2 74.8"/>
<path d="M 959.4 165.1 L 924.8 186.3 L 911.5 189.1 L 896.9 187.8 L 872.3 175.6 L 858.4 176.2 L 848.5 181.1 L 832.4 203.4 L 801.8 230.2 L 752.2 268.4 L 731.0 275.9 L 691.0 283.8 L 622.0 308.4 L 586.7 307.1 L 565.2 312.9 L 558.5 319.2 L 557.1 324.9 L 568.2 365.4 L 563.0 378.6 L 538.0 408.4 L 539.5 444.7 L 531.6 452.8 L 510.4 459.0"/>
<path d="M 1248.4 80.5 L 1237.2 65.1 L 1219.0 61.0 L 1205.8 63.9 L 1196.2 68.0 L 1191.2 76.3 L 1205.0 90.4 L 1202.4 94.0 L 1190.4 99.6 L 1167.3 96.5 L 1136.5 114.3"/>
<path d="M 1136.5 114.3 L 1130.1 123.3 L 1114.7 133.4 L 1084.0 133.9 L 1071.4 140.5 L 1053.0 165.9 L 1038.4 175.2"/>
<path d="M 1013.2 171.5 L 992.6 160.7 L 969.7 160.8 L 959.4 165.1"/>
<path d="M 2619.1 -153.8 L 2580.3 -159.4 L 2556.8 -155.2 L 2535.7 -155.7 L 2479.7 -140.5 L 2407.5 -131.2 L 2385.1 -124.4 L 2375.8 -117.9 L 2373.8 -111.8 L 2376.6 -104.1 L 2370.5 -97.1 L 2334.6 -108.8 L 2317.5 -110.7 L 2297.4 -108.0 L 2267.0 -111.1 L 2259.4 -110.4 L 2244.2 -99.5 L 2236.3 -97.7 L 2181.2 -103.3 L 2126.6 -99.2 L 2094.3 -110.2 L 2036.4 -116.8 L 2024.4 -112.9 L 2017.1 -98.2 L 2009.5 -96.4 L 1987.3 -96.7 L 1969.6 -105.1 L 1824.6 -100.2 L 1774.4 -111.4 L 1736.0 -95.6 L 1657.0 -95.5 L 1616.6 -99.4 L 1602.0 -111.5 L 1594.8 -112.4 L 1584.0 -109.6 L 1537.7 -84.1 L 1528.1 -58.0 L 1521.5 -49.1 L 1512.5 -51.1 L 1493.1 -62.9 L 1470.2 -67.5 L 1418.9 -70.1 L 1390.9 -63.8 L 1384.3 -58.8 L 1383.6 -49.3 L 1393.2 -34.4 L 1386.2 -27.4 L 1367.5 -24.0 L 1340.2 -28.6 L 1331.9 -26.3 L 1327.4 -23.1 L 1326.3 -13.1 L 1316.6 3.4 L 1315.0 21.6 L 1296.8 25.3 L 1272.4 23.3"/>
<path d="M 510.4 459.0 L 504.0 459.2"/>
<path d="M 1038.4 175.2 L 1027.3 178.0 L 1013.2 171.5"/>
<path d="M 120.7 464.5 L 76.8 461.0 L 10.9 448.0 L -3.2 444.1 L -24.2 432.7 L -53.7 424.7 L -161.6 421.4 L -230.2 409.6 L -302.3 405.5 L -336.2 400.1 L -344.9 395.6 L -381.2 394.4"/>
</g>
<g fill="none" stroke="#d59a2f" stroke-width="14" opacity="0.9" stroke-linecap="round" stroke-linejoin="round">
<path d="M 1415.6 -14.6 L 1456.9 22.2 L 1543.1 113.8"/>
<path d="M 1253.5 855.2 L 1292.9 838.8"/>
<path d="M 1293.9 839.3 L 1254.2 855.9"/>
<path d="M 1292.9 838.8 L 1338.8 816.4 L 1350.4 805.7 L 1359.4 792.1"/>
<path d="M 1541.9 114.2 L 1455.5 22.4 L 1414.5 -14.3"/>
<path d="M 1563.9 292.3 L 1566.5 278.3 L 1573.7 261.1 L 1600.6 219.7 L 1604.5 206.0 L 1604.2 191.1 L 1598.6 172.2 L 1588.9 157.1 L 1543.5 115.6"/>
<path d="M 1416.8 717.6 L 1408.6 726.3"/>
<path d="M 1407.6 725.7 L 1415.6 717.2"/>
<path d="M 1415.6 717.2 L 1432.7 699.9"/>
<path d="M 1565.2 294.9 L 1566.6 313.5 L 1573.1 330.7 L 1603.0 369.7 L 1608.3 381.9"/>
<path d="M 1607.0 382.1 L 1601.3 370.1 L 1571.9 331.0 L 1564.2 309.0 L 1563.7 295.1"/>
<path d="M 1551.9 582.7 L 1536.2 612.9 L 1512.4 638.1"/>
<path d="M 1565.3 292.2 L 1565.2 294.9"/>
<path d="M 1562.8 469.3 L 1554.7 493.6 L 1553.0 521.9"/>
<path d="M 1551.5 521.9 L 1553.4 493.5 L 1561.5 469.1"/>
<path d="M 1561.5 469.1 L 1570.6 452.7 L 1600.5 413.6 L 1606.1 403.0"/>
<path d="M 1563.7 295.1 L 1563.9 292.3"/>
<path d="M 1125.5 944.9 L 1161.9 923.0 L 1207.3 878.8 L 1227.9 866.5 L 1253.5 855.2"/>
<path d="M 1581.2 566.2 L 1613.6 571.8 L 1638.4 580.2 L 1667.1 599.3"/>
<path d="M 1471.8 667.5 L 1474.6 665.4"/>
<path d="M 1359.4 792.1 L 1360.7 789.7"/>
<path d="M 1475.4 666.0 L 1472.4 668.2"/>
<path d="M 1474.6 665.4 L 1507.9 640.5"/>
<path d="M 1360.7 789.7 L 1382.3 756.5 L 1407.6 725.7"/>
<path d="M 1362.0 790.0 L 1360.3 792.8"/>
<path d="M 1360.3 792.8 L 1349.6 808.2 L 1339.0 817.5 L 1293.9 839.3"/>
<path d="M 1432.7 699.9 L 1435.1 697.6"/>
<path d="M 1436.6 698.3 L 1434.2 700.4"/>
<path d="M 1434.2 700.4 L 1416.8 717.6"/>
<path d="M 1435.1 697.6 L 1471.8 667.5"/>
<path d="M 1543.5 115.6 L 1541.9 114.2"/>
<path d="M 1543.1 113.8 L 1544.6 115.2"/>
<path d="M 1509.0 640.9 L 1475.4 666.0"/>
<path d="M 1507.9 640.5 L 1511.3 637.7"/>
<path d="M 1512.4 638.1 L 1509.0 640.9"/>
<path d="M 1511.3 637.7 L 1537.7 608.8 L 1547.1 591.6 L 1553.0 573.6"/>
<path d="M 459.0 16.9 L 461.8 -10.9 L 466.0 -25.4"/>
<path d="M 458.2 21.0 L 459.0 16.9"/>
<path d="M 1408.6 726.3 L 1387.7 751.2 L 1362.0 790.0"/>
<path d="M 1254.2 855.9 L 1228.9 867.1 L 1208.6 879.3 L 1193.7 891.6 L 1162.2 924.1 L 1126.3 945.5"/>
<path d="M 1472.4 668.2 L 1436.6 698.3"/>
<path d="M 1607.4 403.3 L 1601.8 414.0 L 1575.1 448.3 L 1562.8 469.3"/>
<path d="M 1544.6 115.2 L 1590.2 156.8 L 1600.1 172.1 L 1605.6 191.8 L 1605.5 205.7 L 1600.5 223.3 L 1572.5 266.2 L 1565.3 292.2"/>
<path d="M 1666.5 599.3 L 1646.8 585.0 L 1630.7 577.7 L 1607.4 570.8 L 1585.4 567.2"/>
<path d="M 394.9 83.4 L 319.0 138.9 L 298.0 161.5"/>
<path d="M 292.4 171.6 L 286.9 195.4 L 288.8 210.8 L 293.7 223.9"/>
<path d="M 453.2 33.6 L 438.6 50.9"/>
<path d="M 295.7 165.3 L 293.5 169.4"/>
<path d="M 298.0 161.5 L 295.7 165.3"/>
<path d="M 295.3 227.2 L 302.3 243.0 L 303.7 257.6"/>
<path d="M 293.5 169.4 L 292.4 171.6"/>
<path d="M 293.7 223.9 L 295.3 227.2"/>
<path d="M 396.9 81.9 L 394.9 83.4"/>
<path d="M 416.7 67.5 L 396.9 81.9"/>
<path d="M 438.6 50.9 L 416.7 67.5"/>
<path d="M 458.2 21.0 L 453.2 33.6"/>
<path d="M 1553.0 521.9 L 1555.1 543.2"/>
<path d="M 1555.1 543.2 L 1555.9 561.9 L 1551.9 582.7"/>
<path d="M 1553.0 573.6 L 1554.6 560.2 L 1553.3 539.0"/>
<path d="M 1553.3 539.0 L 1551.5 521.9"/>
</g>
<g fill="none" stroke="#f4bf45" stroke-width="12" opacity="0.95" stroke-linecap="round" stroke-linejoin="round">
<path d="M 1415.6 -14.6 L 1456.9 22.2 L 1543.1 113.8"/>
<path d="M 1253.5 855.2 L 1292.9 838.8"/>
<path d="M 1293.9 839.3 L 1254.2 855.9"/>
<path d="M 1292.9 838.8 L 1338.8 816.4 L 1350.4 805.7 L 1359.4 792.1"/>
<path d="M 1541.9 114.2 L 1455.5 22.4 L 1414.5 -14.3"/>
<path d="M 1563.9 292.3 L 1566.5 278.3 L 1573.7 261.1 L 1600.6 219.7 L 1604.5 206.0 L 1604.2 191.1 L 1598.6 172.2 L 1588.9 157.1 L 1543.5 115.6"/>
<path d="M 1416.8 717.6 L 1408.6 726.3"/>
<path d="M 1407.6 725.7 L 1415.6 717.2"/>
<path d="M 1415.6 717.2 L 1432.7 699.9"/>
<path d="M 1565.2 294.9 L 1566.6 313.5 L 1573.1 330.7 L 1603.0 369.7 L 1608.3 381.9"/>
<path d="M 1607.0 382.1 L 1601.3 370.1 L 1571.9 331.0 L 1564.2 309.0 L 1563.7 295.1"/>
<path d="M 1551.9 582.7 L 1536.2 612.9 L 1512.4 638.1"/>
<path d="M 1565.3 292.2 L 1565.2 294.9"/>
<path d="M 1562.8 469.3 L 1554.7 493.6 L 1553.0 521.9"/>
<path d="M 1551.5 521.9 L 1553.4 493.5 L 1561.5 469.1"/>
<path d="M 1561.5 469.1 L 1570.6 452.7 L 1600.5 413.6 L 1606.1 403.0"/>
<path d="M 1563.7 295.1 L 1563.9 292.3"/>
<path d="M 1125.5 944.9 L 1161.9 923.0 L 1207.3 878.8 L 1227.9 866.5 L 1253.5 855.2"/>
<path d="M 1581.2 566.2 L 1613.6 571.8 L 1638.4 580.2 L 1667.1 599.3"/>
<path d="M 1471.8 667.5 L 1474.6 665.4"/>
<path d="M 1359.4 792.1 L 1360.7 789.7"/>
<path d="M 1475.4 666.0 L 1472.4 668.2"/>
<path d="M 1474.6 665.4 L 1507.9 640.5"/>
<path d="M 1360.7 789.7 L 1382.3 756.5 L 1407.6 725.7"/>
<path d="M 1362.0 790.0 L 1360.3 792.8"/>
<path d="M 1360.3 792.8 L 1349.6 808.2 L 1339.0 817.5 L 1293.9 839.3"/>
<path d="M 1432.7 699.9 L 1435.1 697.6"/>
<path d="M 1436.6 698.3 L 1434.2 700.4"/>
<path d="M 1434.2 700.4 L 1416.8 717.6"/>
<path d="M 1435.1 697.6 L 1471.8 667.5"/>
<path d="M 1543.5 115.6 L 1541.9 114.2"/>
<path d="M 1543.1 113.8 L 1544.6 115.2"/>
<path d="M 1509.0 640.9 L 1475.4 666.0"/>
<path d="M 1507.9 640.5 L 1511.3 637.7"/>
<path d="M 1512.4 638.1 L 1509.0 640.9"/>
<path d="M 1511.3 637.7 L 1537.7 608.8 L 1547.1 591.6 L 1553.0 573.6"/>
<path d="M 459.0 16.9 L 461.8 -10.9 L 466.0 -25.4"/>
<path d="M 458.2 21.0 L 459.0 16.9"/>
<path d="M 1408.6 726.3 L 1387.7 751.2 L 1362.0 790.0"/>
<path d="M 1254.2 855.9 L 1228.9 867.1 L 1208.6 879.3 L 1193.7 891.6 L 1162.2 924.1 L 1126.3 945.5"/>
<path d="M 1472.4 668.2 L 1436.6 698.3"/>
<path d="M 1607.4 403.3 L 1601.8 414.0 L 1575.1 448.3 L 1562.8 469.3"/>
<path d="M 1544.6 115.2 L 1590.2 156.8 L 1600.1 172.1 L 1605.6 191.8 L 1605.5 205.7 L 1600.5 223.3 L 1572.5 266.2 L 1565.3 292.2"/>
<path d="M 1666.5 599.3 L 1646.8 585.0 L 1630.7 577.7 L 1607.4 570.8 L 1585.4 567.2"/>
<path d="M 394.9 83.4 L 319.0 138.9 L 298.0 161.5"/>
<path d="M 292.4 171.6 L 286.9 195.4 L 288.8 210.8 L 293.7 223.9"/>
<path d="M 453.2 33.6 L 438.6 50.9"/>
<path d="M 295.7 165.3 L 293.5 169.4"/>
<path d="M 298.0 161.5 L 295.7 165.3"/>
<path d="M 295.3 227.2 L 302.3 243.0 L 303.7 257.6"/>
<path d="M 293.5 169.4 L 292.4 171.6"/>
<path d="M 293.7 223.9 L 295.3 227.2"/>
<path d="M 396.9 81.9 L 394.9 83.4"/>
<path d="M 416.7 67.5 L 396.9 81.9"/>
<path d="M 438.6 50.9 L 416.7 67.5"/>
<path d="M 458.2 21.0 L 453.2 33.6"/>
<path d="M 1553.0 521.9 L 1555.1 543.2"/>
<path d="M 1555.1 543.2 L 1555.9 561.9 L 1551.9 582.7"/>
<path d="M 1553.0 573.6 L 1554.6 560.2 L 1553.3 539.0"/>
<path d="M 1553.3 539.0 L 1551.5 521.9"/>
</g>
<g fill="none" stroke="#d59a2f" stroke-width="12" opacity="0.9" stroke-linecap="round" stroke-linejoin="round">
<path d="M 1105.6 321.8 L 1091.4 287.0 L 1091.5 281.1 L 1123.2 223.8 L 1143.5 179.4"/>
<path d="M 1442.1 12.0 L 1423.2 26.6 L 1399.1 40.3"/>
<path d="M 1444.3 8.4 L 1463.1 -15.8 L 1481.4 -59.1"/>
<path d="M 1441.4 11.2 L 1444.3 8.4"/>
<path d="M 522.0 509.1 L 568.5 508.1"/>
<path d="M 987.3 -100.3 L 1132.4 -35.8 L 1151.1 -26.4 L 1161.9 -17.9 L 1167.1 -5.9 L 1162.9 5.6 L 1152.3 14.8 L 1123.2 32.8 L 1116.8 43.0 L 1120.0 54.7 L 1137.8 75.9"/>
<path d="M 1136.8 76.1 L 1118.2 53.8 L 1115.9 42.0 L 1122.4 32.1 L 1152.6 13.7 L 1161.9 5.2 L 1166.0 -3.9 L 1162.8 -15.3 L 1142.4 -30.2 L 1025.1 -82.0"/>
<path d="M 1052.4 644.6 L 1051.6 637.4 L 1040.9 628.4 L 1027.4 606.7 L 1044.5 598.8"/>
<path d="M 1034.1 580.7 L 1038.2 587.6"/>
<path d="M 1035.4 702.9 L 1047.6 674.9"/>
<path d="M 1033.1 580.2 L 1034.1 580.7"/>
<path d="M 1038.2 587.6 L 1044.5 598.8"/>
<path d="M 1033.1 580.2 L 1023.5 572.6"/>
<path d="M 1148.5 679.2 L 1157.5 690.2 L 1215.7 701.0"/>
<path d="M 86.0 966.4 L 84.3 961.5 L 92.0 937.3 L 88.1 906.6 L 54.0 863.5 L 51.3 857.3"/>
<path d="M 46.2 828.0 L 44.5 826.6"/>
<path d="M 19.6 807.8 L 44.5 826.6"/>
<path d="M 50.6 834.1 L 46.2 828.0"/>
<path d="M 951.3 920.5 L 967.5 899.5 L 988.6 889.9 L 1011.5 874.3 L 1045.6 836.6 L 1049.9 823.4 L 1043.1 798.0"/>
<path d="M 399.2 783.8 L 396.9 789.8"/>
<path d="M 411.6 744.9 L 407.0 760.7"/>
<path d="M 377.1 838.8 L 345.9 930.4"/>
<path d="M 406.6 762.3 L 406.3 763.1"/>
<path d="M 407.0 760.7 L 406.6 762.3"/>
<path d="M 404.0 771.1 L 399.2 783.8"/>
<path d="M 1037.5 411.8 L 1048.7 406.9"/>
<path d="M 1049.7 407.6 L 1038.6 412.5"/>
<path d="M 1145.2 179.4 L 1130.3 213.3 L 1092.5 283.6 L 1119.4 354.4 L 1114.8 362.9 L 1092.0 388.8 L 1049.7 407.6"/>
<path d="M 846.8 27.3 L 849.1 30.8"/>
<path d="M 730.7 -128.6 L 738.2 -117.0 L 800.1 -46.3 L 846.8 27.3"/>
<path d="M 1399.1 40.3 L 1397.4 41.2"/>
<path d="M 1396.6 40.6 L 1398.5 39.7"/>
<path d="M 1398.5 39.7 L 1424.3 24.8 L 1441.4 11.2"/>
<path d="M 1445.1 9.1 L 1442.1 12.0"/>
<path d="M 1471.7 -32.3 L 1460.1 -8.7 L 1445.1 9.1"/>
<path d="M 1154.9 154.0 L 1161.8 130.2 L 1159.7 109.4"/>
<path d="M 1151.3 92.7 L 1154.0 96.5"/>
<path d="M 1150.4 93.0 L 1136.8 76.1"/>
<path d="M 1137.8 75.9 L 1151.3 92.7"/>
<path d="M 859.4 46.5 L 865.2 55.7"/>
<path d="M 849.1 30.8 L 851.2 34.2"/>
<path d="M 767.1 241.3 L 757.4 255.3 L 735.8 269.3 L 677.8 283.2"/>
<path d="M 725.5 298.2 L 735.0 306.6 L 745.0 338.2"/>
<path d="M 704.6 278.3 L 703.1 276.5"/>
<path d="M 782.7 369.1 L 787.6 387.8 L 800.5 404.6 L 843.1 442.7 L 921.0 499.4"/>
<path d="M 1022.9 572.1 L 1000.7 556.3"/>
<path d="M 1000.7 556.3 L 999.5 555.4"/>
<path d="M 776.3 330.3 L 777.2 342.6"/>
<path d="M 599.8 397.1 L 598.9 400.5"/>
<path d="M 657.9 299.5 L 658.8 301.0"/>
<path d="M 523.4 509.2 L 522.7 510.8"/>
<path d="M 598.9 400.5 L 595.3 411.8 L 528.0 499.6 L 523.4 509.2"/>
<path d="M 678.4 503.7 L 869.9 474.3 L 926.7 459.4"/>
<path d="M 927.2 460.4 L 870.7 475.7 L 679.1 505.3"/>
<path d="M 512.9 662.4 L 513.5 666.4"/>
<path d="M 522.7 510.8 L 496.6 572.4"/>
<path d="M 510.9 619.3 L 512.7 660.9"/>
<path d="M 513.7 667.5 L 514.8 674.5"/>
<path d="M 512.7 660.9 L 512.9 662.4"/>
<path d="M 515.5 679.4 L 515.9 687.9"/>
<path d="M 510.6 618.1 L 510.9 619.3"/>
<path d="M 515.9 687.9 L 509.9 699.4 L 495.4 709.2 L 427.7 730.5"/>
<path d="M 664.1 504.9 L 678.4 503.7"/>
<path d="M 18.6 807.1 L 19.6 807.8"/>
<path d="M 5.4 747.4 L 15.2 800.8"/>
<path d="M 5.4 747.4 L 4.7 744.2"/>
<path d="M 31.3 597.7 L 35.3 612.2 L 58.2 649.3 L 61.4 659.3 L 41.8 675.9 L -4.2 700.9"/>
<path d="M 15.2 800.8 L 18.6 807.1"/>
<path d="M 1160.7 109.2 L 1164.5 128.2 L 1159.0 149.5"/>
<path d="M 1153.1 96.8 L 1150.4 93.0"/>
<path d="M 1159.7 109.4 L 1153.1 96.8"/>
<path d="M 1154.0 96.5 L 1160.7 109.2"/>
<path d="M 553.3 509.9 L 522.7 510.8"/>
<path d="M 679.1 505.3 L 664.6 506.7"/>
<path d="M 653.6 507.0 L 577.0 509.0"/>
<path d="M 673.5 284.4 L 735.9 268.6 L 758.1 253.8 L 766.1 241.1"/>
<path d="M 624.6 350.9 L 608.8 367.3 L 606.2 373.2"/>
<path d="M 623.1 351.2 L 662.8 311.6 L 657.9 301.2"/>
<path d="M 598.2 400.4 L 598.9 397.1"/>
<path d="M 522.0 509.1 L 593.7 412.4 L 598.2 400.4"/>
<path d="M 605.1 373.2 L 610.9 363.1 L 623.1 351.2"/>
<path d="M 521.2 510.8 L 522.0 509.1"/>
<path d="M 657.1 299.8 L 652.6 292.8"/>
<path d="M 514.8 674.5 L 514.9 675.0"/>
<path d="M 513.5 666.4 L 513.7 667.5"/>
<path d="M 509.3 618.1 L 495.2 572.5"/>
<path d="M 514.9 675.0 L 515.5 679.4"/>
<path d="M 568.5 508.1 L 664.1 504.9"/>
<path d="M 653.7 292.4 L 657.9 299.5"/>
<path d="M 511.7 661.2 L 510.3 622.4"/>
<path d="M 510.3 622.4 L 509.6 619.4"/>
<path d="M 509.6 619.4 L 509.3 618.1"/>
<path d="M 511.9 662.8 L 511.7 661.2"/>
<path d="M 404.5 763.0 L 404.8 762.1"/>
<path d="M 405.2 760.5 L 409.8 745.0"/>
<path d="M 513.7 674.8 L 513.6 674.2"/>
<path d="M 404.8 762.1 L 405.2 760.5"/>
<path d="M 512.6 667.5 L 512.4 666.4"/>
<path d="M 426.9 730.0 L 496.2 708.1 L 508.3 699.9 L 514.8 687.8"/>
<path d="M 514.3 679.2 L 513.7 674.8"/>
<path d="M 513.6 674.2 L 512.6 667.5"/>
<path d="M 512.4 666.4 L 511.9 662.8"/>
<path d="M 514.8 687.8 L 514.3 679.2"/>
<path d="M 864.4 55.9 L 859.1 47.1"/>
<path d="M 777.3 346.5 L 779.8 357.2"/>
<path d="M 395.2 789.9 L 397.7 783.9"/>
<path d="M 344.8 930.2 L 375.7 838.9"/>
<path d="M 397.7 783.9 L 402.5 771.1"/>
<path d="M 1215.7 701.0 L 1238.9 704.7 L 1263.4 705.4 L 1327.3 700.5 L 1366.6 700.7 L 1394.7 707.1 L 1424.3 722.7"/>
<path d="M 1424.3 722.7 L 1519.4 773.9 L 1539.5 782.4 L 1564.2 789.9 L 1660.1 808.3 L 1685.6 815.4 L 1702.9 825.5 L 1732.5 851.7"/>
<path d="M 1645.1 806.2 L 1559.7 789.4 L 1518.8 774.4"/>
<path d="M 1518.8 774.4 L 1404.7 712.4 L 1381.0 703.6 L 1339.4 700.5 L 1254.0 706.0 L 1215.4 701.6"/>
<path d="M 859.1 47.1 L 858.4 46.2"/>
<path d="M 858.8 45.5 L 859.4 46.5"/>
<path d="M 851.2 34.2 L 858.8 45.5"/>
<path d="M 858.4 46.2 L 851.2 34.2"/>
<path d="M 988.1 547.3 L 989.1 547.9"/>
<path d="M 999.5 555.4 L 989.1 547.9"/>
<path d="M 657.9 301.2 L 657.1 299.8"/>
<path d="M 663.8 310.9 L 624.6 350.9"/>
<path d="M 495.2 572.5 L 521.2 510.8"/>
<path d="M 496.4 574.9 L 510.6 618.1"/>
<path d="M 796.8 170.4 L 802.5 147.9 L 806.0 142.8 L 862.8 102.4"/>
<path d="M 863.8 102.7 L 805.5 144.2 L 797.5 170.4"/>
<path d="M 766.1 241.1 L 782.7 211.5 L 786.4 189.4 L 794.2 181.4 L 796.8 170.4"/>
<path d="M 797.5 170.4 L 795.2 180.6 L 787.5 189.4 L 783.8 211.7 L 767.1 241.3"/>
<path d="M 1041.2 791.0 L 1024.6 734.9 L 1026.6 717.7 L 1035.4 702.9"/>
<path d="M 1.2 717.9 L 4.7 744.2"/>
<path d="M 1253.2 108.0 L 1396.6 40.6"/>
<path d="M 1397.4 41.2 L 1245.7 112.3"/>
<path d="M 1146.0 177.8 L 1145.2 179.4"/>
<path d="M 1143.5 179.4 L 1144.3 177.7"/>
<path d="M 1215.4 701.6 L 1155.1 690.2 L 1146.7 678.6 L 1115.7 665.2 L 1064.2 631.5 L 1058.2 625.5 L 1043.7 599.1"/>
<path d="M 1037.4 587.8 L 1033.4 580.8"/>
<path d="M 1043.7 599.1 L 1037.4 587.8"/>
<path d="M 1033.4 580.8 L 1033.1 580.2"/>
<path d="M 51.3 856.9 L 50.6 834.1"/>
<path d="M 51.3 857.3 L 51.3 856.9"/>
<path d="M 704.6 278.3 L 709.8 283.9"/>
<path d="M 1245.7 112.3 L 1159.0 149.5"/>
<path d="M 1154.9 154.0 L 1157.6 149.3 L 1164.4 145.5 L 1253.2 108.0"/>
<path d="M 745.0 338.2 L 776.3 330.3"/>
<path d="M 31.1 597.1 L 31.3 597.7"/>
<path d="M 862.8 102.4 L 866.4 94.5 L 864.4 55.9"/>
<path d="M 865.2 55.7 L 867.2 93.9 L 863.8 102.7"/>
<path d="M 1159.0 149.5 L 1146.0 177.8"/>
<path d="M 1144.3 177.7 L 1154.9 154.0"/>
<path d="M 1023.5 572.6 L 1022.9 572.1"/>
<path d="M 1051.0 660.6 L 1052.4 644.6"/>
<path d="M 1043.1 798.0 L 1041.2 791.0"/>
<path d="M 1047.6 674.9 L 1051.0 660.6"/>
<path d="M 1044.5 598.8 L 1063.5 630.1 L 1101.2 654.0"/>
<path d="M 1101.2 654.0 L 1118.7 665.8 L 1148.5 679.2"/>
<path d="M 664.6 506.7 L 653.6 507.0"/>
<path d="M 577.0 509.0 L 553.3 509.9"/>
<path d="M 709.8 283.9 L 725.5 298.2"/>
<path d="M 777.2 342.6 L 777.3 346.5"/>
<path d="M 779.8 357.2 L 782.7 369.1"/>
<path d="M 677.8 283.2 L 653.7 292.4"/>
<path d="M 658.8 301.0 L 663.8 310.9"/>
<path d="M 928.6 458.7 L 1037.5 411.8"/>
<path d="M 926.7 459.4 L 928.6 458.7"/>
<path d="M 1038.6 412.5 L 929.0 459.7"/>
<path d="M 929.0 459.7 L 927.2 460.4"/>
<path d="M 922.6 500.5 L 988.1 547.3"/>
<path d="M 921.0 499.4 L 922.6 500.5"/>
<path d="M 606.2 373.2 L 599.8 397.1"/>
<path d="M 598.9 397.1 L 605.1 373.2"/>
<path d="M 652.6 292.8 L 653.3 290.7 L 673.5 284.4"/>
<path d="M 409.8 745.0 L 415.8 736.7 L 426.9 730.0"/>
<path d="M 427.7 730.5 L 416.5 737.3 L 411.6 744.9"/>
<path d="M 496.6 572.4 L 496.4 574.9"/>
<path d="M 402.5 771.1 L 404.5 763.0"/>
<path d="M 406.3 763.1 L 404.0 771.1"/>
<path d="M 396.9 789.8 L 377.1 838.8"/>
<path d="M 375.7 838.9 L 395.2 789.9"/>
<path d="M 1048.7 406.9 L 1093.1 385.8 L 1116.8 355.1 L 1117.3 350.8 L 1111.9 337.4"/>
<path d="M 1111.9 337.4 L 1105.6 321.8"/>
<path d="M -0.8 712.0 L 1.2 717.9"/>
</g>
<g fill="none" stroke="#f4bf45" stroke-width="10" opacity="0.95" stroke-linecap="round" stroke-linejoin="round">
<path d="M 1105.6 321.8 L 1091.4 287.0 L 1091.5 281.1 L 1123.2 223.8 L 1143.5 179.4"/>
<path d="M 1442.1 12.0 L 1423.2 26.6 L 1399.1 40.3"/>
<path d="M 1444.3 8.4 L 1463.1 -15.8 L 1481.4 -59.1"/>
<path d="M 1441.4 11.2 L 1444.3 8.4"/>
<path d="M 522.0 509.1 L 568.5 508.1"/>
<path d="M 987.3 -100.3 L 1132.4 -35.8 L 1151.1 -26.4 L 1161.9 -17.9 L 1167.1 -5.9 L 1162.9 5.6 L 1152.3 14.8 L 1123.2 32.8 L 1116.8 43.0 L 1120.0 54.7 L 1137.8 75.9"/>
<path d="M 1136.8 76.1 L 1118.2 53.8 L 1115.9 42.0 L 1122.4 32.1 L 1152.6 13.7 L 1161.9 5.2 L 1166.0 -3.9 L 1162.8 -15.3 L 1142.4 -30.2 L 1025.1 -82.0"/>
<path d="M 1052.4 644.6 L 1051.6 637.4 L 1040.9 628.4 L 1027.4 606.7 L 1044.5 598.8"/>
<path d="M 1034.1 580.7 L 1038.2 587.6"/>
<path d="M 1035.4 702.9 L 1047.6 674.9"/>
<path d="M 1033.1 580.2 L 1034.1 580.7"/>
<path d="M 1038.2 587.6 L 1044.5 598.8"/>
<path d="M 1033.1 580.2 L 1023.5 572.6"/>
<path d="M 1148.5 679.2 L 1157.5 690.2 L 1215.7 701.0"/>
<path d="M 86.0 966.4 L 84.3 961.5 L 92.0 937.3 L 88.1 906.6 L 54.0 863.5 L 51.3 857.3"/>
<path d="M 46.2 828.0 L 44.5 826.6"/>
<path d="M 19.6 807.8 L 44.5 826.6"/>
<path d="M 50.6 834.1 L 46.2 828.0"/>
<path d="M 951.3 920.5 L 967.5 899.5 L 988.6 889.9 L 1011.5 874.3 L 1045.6 836.6 L 1049.9 823.4 L 1043.1 798.0"/>
<path d="M 399.2 783.8 L 396.9 789.8"/>
<path d="M 411.6 744.9 L 407.0 760.7"/>
<path d="M 377.1 838.8 L 345.9 930.4"/>
<path d="M 406.6 762.3 L 406.3 763.1"/>
<path d="M 407.0 760.7 L 406.6 762.3"/>
<path d="M 404.0 771.1 L 399.2 783.8"/>
<path d="M 1037.5 411.8 L 1048.7 406.9"/>
<path d="M 1049.7 407.6 L 1038.6 412.5"/>
<path d="M 1145.2 179.4 L 1130.3 213.3 L 1092.5 283.6 L 1119.4 354.4 L 1114.8 362.9 L 1092.0 388.8 L 1049.7 407.6"/>
<path d="M 846.8 27.3 L 849.1 30.8"/>
<path d="M 730.7 -128.6 L 738.2 -117.0 L 800.1 -46.3 L 846.8 27.3"/>
<path d="M 1399.1 40.3 L 1397.4 41.2"/>
<path d="M 1396.6 40.6 L 1398.5 39.7"/>
<path d="M 1398.5 39.7 L 1424.3 24.8 L 1441.4 11.2"/>
<path d="M 1445.1 9.1 L 1442.1 12.0"/>
<path d="M 1471.7 -32.3 L 1460.1 -8.7 L 1445.1 9.1"/>
<path d="M 1154.9 154.0 L 1161.8 130.2 L 1159.7 109.4"/>
<path d="M 1151.3 92.7 L 1154.0 96.5"/>
<path d="M 1150.4 93.0 L 1136.8 76.1"/>
<path d="M 1137.8 75.9 L 1151.3 92.7"/>
<path d="M 859.4 46.5 L 865.2 55.7"/>
<path d="M 849.1 30.8 L 851.2 34.2"/>
<path d="M 767.1 241.3 L 757.4 255.3 L 735.8 269.3 L 677.8 283.2"/>
<path d="M 725.5 298.2 L 735.0 306.6 L 745.0 338.2"/>
<path d="M 704.6 278.3 L 703.1 276.5"/>
<path d="M 782.7 369.1 L 787.6 387.8 L 800.5 404.6 L 843.1 442.7 L 921.0 499.4"/>
<path d="M 1022.9 572.1 L 1000.7 556.3"/>
<path d="M 1000.7 556.3 L 999.5 555.4"/>
<path d="M 776.3 330.3 L 777.2 342.6"/>
<path d="M 599.8 397.1 L 598.9 400.5"/>
<path d="M 657.9 299.5 L 658.8 301.0"/>
<path d="M 523.4 509.2 L 522.7 510.8"/>
<path d="M 598.9 400.5 L 595.3 411.8 L 528.0 499.6 L 523.4 509.2"/>
<path d="M 678.4 503.7 L 869.9 474.3 L 926.7 459.4"/>
<path d="M 927.2 460.4 L 870.7 475.7 L 679.1 505.3"/>
<path d="M 512.9 662.4 L 513.5 666.4"/>
<path d="M 522.7 510.8 L 496.6 572.4"/>
<path d="M 510.9 619.3 L 512.7 660.9"/>
<path d="M 513.7 667.5 L 514.8 674.5"/>
<path d="M 512.7 660.9 L 512.9 662.4"/>
<path d="M 515.5 679.4 L 515.9 687.9"/>
<path d="M 510.6 618.1 L 510.9 619.3"/>
<path d="M 515.9 687.9 L 509.9 699.4 L 495.4 709.2 L 427.7 730.5"/>
<path d="M 664.1 504.9 L 678.4 503.7"/>
<path d="M 18.6 807.1 L 19.6 807.8"/>
<path d="M 5.4 747.4 L 15.2 800.8"/>
<path d="M 5.4 747.4 L 4.7 744.2"/>
<path d="M 31.3 597.7 L 35.3 612.2 L 58.2 649.3 L 61.4 659.3 L 41.8 675.9 L -4.2 700.9"/>
<path d="M 15.2 800.8 L 18.6 807.1"/>
<path d="M 1160.7 109.2 L 1164.5 128.2 L 1159.0 149.5"/>
<path d="M 1153.1 96.8 L 1150.4 93.0"/>
<path d="M 1159.7 109.4 L 1153.1 96.8"/>
<path d="M 1154.0 96.5 L 1160.7 109.2"/>
<path d="M 553.3 509.9 L 522.7 510.8"/>
<path d="M 679.1 505.3 L 664.6 506.7"/>
<path d="M 653.6 507.0 L 577.0 509.0"/>
<path d="M 673.5 284.4 L 735.9 268.6 L 758.1 253.8 L 766.1 241.1"/>
<path d="M 624.6 350.9 L 608.8 367.3 L 606.2 373.2"/>
<path d="M 623.1 351.2 L 662.8 311.6 L 657.9 301.2"/>
<path d="M 598.2 400.4 L 598.9 397.1"/>
<path d="M 522.0 509.1 L 593.7 412.4 L 598.2 400.4"/>
<path d="M 605.1 373.2 L 610.9 363.1 L 623.1 351.2"/>
<path d="M 521.2 510.8 L 522.0 509.1"/>
<path d="M 657.1 299.8 L 652.6 292.8"/>
<path d="M 514.8 674.5 L 514.9 675.0"/>
<path d="M 513.5 666.4 L 513.7 667.5"/>
<path d="M 509.3 618.1 L 495.2 572.5"/>
<path d="M 514.9 675.0 L 515.5 679.4"/>
<path d="M 568.5 508.1 L 664.1 504.9"/>
<path d="M 653.7 292.4 L 657.9 299.5"/>
<path d="M 511.7 661.2 L 510.3 622.4"/>
<path d="M 510.3 622.4 L 509.6 619.4"/>
<path d="M 509.6 619.4 L 509.3 618.1"/>
<path d="M 511.9 662.8 L 511.7 661.2"/>
<path d="M 404.5 763.0 L 404.8 762.1"/>
<path d="M 405.2 760.5 L 409.8 745.0"/>
<path d="M 513.7 674.8 L 513.6 674.2"/>
<path d="M 404.8 762.1 L 405.2 760.5"/>
<path d="M 512.6 667.5 L 512.4 666.4"/>
<path d="M 426.9 730.0 L 496.2 708.1 L 508.3 699.9 L 514.8 687.8"/>
<path d="M 514.3 679.2 L 513.7 674.8"/>
<path d="M 513.6 674.2 L 512.6 667.5"/>
<path d="M 512.4 666.4 L 511.9 662.8"/>
<path d="M 514.8 687.8 L 514.3 679.2"/>
<path d="M 864.4 55.9 L 859.1 47.1"/>
<path d="M 777.3 346.5 L 779.8 357.2"/>
<path d="M 395.2 789.9 L 397.7 783.9"/>
<path d="M 344.8 930.2 L 375.7 838.9"/>
<path d="M 397.7 783.9 L 402.5 771.1"/>
<path d="M 1215.7 701.0 L 1238.9 704.7 L 1263.4 705.4 L 1327.3 700.5 L 1366.6 700.7 L 1394.7 707.1 L 1424.3 722.7"/>
<path d="M 1424.3 722.7 L 1519.4 773.9 L 1539.5 782.4 L 1564.2 789.9 L 1660.1 808.3 L 1685.6 815.4 L 1702.9 825.5 L 1732.5 851.7"/>
<path d="M 1645.1 806.2 L 1559.7 789.4 L 1518.8 774.4"/>
<path d="M 1518.8 774.4 L 1404.7 712.4 L 1381.0 703.6 L 1339.4 700.5 L 1254.0 706.0 L 1215.4 701.6"/>
<path d="M 859.1 47.1 L 858.4 46.2"/>
<path d="M 858.8 45.5 L 859.4 46.5"/>
<path d="M 851.2 34.2 L 858.8 45.5"/>
<path d="M 858.4 46.2 L 851.2 34.2"/>
<path d="M 988.1 547.3 L 989.1 547.9"/>
<path d="M 999.5 555.4 L 989.1 547.9"/>
<path d="M 657.9 301.2 L 657.1 299.8"/>
<path d="M 663.8 310.9 L 624.6 350.9"/>
<path d="M 495.2 572.5 L 521.2 510.8"/>
<path d="M 496.4 574.9 L 510.6 618.1"/>
<path d="M 796.8 170.4 L 802.5 147.9 L 806.0 142.8 L 862.8 102.4"/>
<path d="M 863.8 102.7 L 805.5 144.2 L 797.5 170.4"/>
<path d="M 766.1 241.1 L 782.7 211.5 L 786.4 189.4 L 794.2 181.4 L 796.8 170.4"/>
<path d="M 797.5 170.4 L 795.2 180.6 L 787.5 189.4 L 783.8 211.7 L 767.1 241.3"/>
<path d="M 1041.2 791.0 L 1024.6 734.9 L 1026.6 717.7 L 1035.4 702.9"/>
<path d="M 1.2 717.9 L 4.7 744.2"/>
<path d="M 1253.2 108.0 L 1396.6 40.6"/>
<path d="M 1397.4 41.2 L 1245.7 112.3"/>
<path d="M 1146.0 177.8 L 1145.2 179.4"/>
<path d="M 1143.5 179.4 L 1144.3 177.7"/>
<path d="M 1215.4 701.6 L 1155.1 690.2 L 1146.7 678.6 L 1115.7 665.2 L 1064.2 631.5 L 1058.2 625.5 L 1043.7 599.1"/>
<path d="M 1037.4 587.8 L 1033.4 580.8"/>
<path d="M 1043.7 599.1 L 1037.4 587.8"/>
<path d="M 1033.4 580.8 L 1033.1 580.2"/>
<path d="M 51.3 856.9 L 50.6 834.1"/>
<path d="M 51.3 857.3 L 51.3 856.9"/>
<path d="M 704.6 278.3 L 709.8 283.9"/>
<path d="M 1245.7 112.3 L 1159.0 149.5"/>
<path d="M 1154.9 154.0 L 1157.6 149.3 L 1164.4 145.5 L 1253.2 108.0"/>
<path d="M 745.0 338.2 L 776.3 330.3"/>
<path d="M 31.1 597.1 L 31.3 597.7"/>
<path d="M 862.8 102.4 L 866.4 94.5 L 864.4 55.9"/>
<path d="M 865.2 55.7 L 867.2 93.9 L 863.8 102.7"/>
<path d="M 1159.0 149.5 L 1146.0 177.8"/>
<path d="M 1144.3 177.7 L 1154.9 154.0"/>
<path d="M 1023.5 572.6 L 1022.9 572.1"/>
<path d="M 1051.0 660.6 L 1052.4 644.6"/>
<path d="M 1043.1 798.0 L 1041.2 791.0"/>
<path d="M 1047.6 674.9 L 1051.0 660.6"/>
<path d="M 1044.5 598.8 L 1063.5 630.1 L 1101.2 654.0"/>
<path d="M 1101.2 654.0 L 1118.7 665.8 L 1148.5 679.2"/>
<path d="M 664.6 506.7 L 653.6 507.0"/>
<path d="M 577.0 509.0 L 553.3 509.9"/>
<path d="M 709.8 283.9 L 725.5 298.2"/>
<path d="M 777.2 342.6 L 777.3 346.5"/>
<path d="M 779.8 357.2 L 782.7 369.1"/>
<path d="M 677.8 283.2 L 653.7 292.4"/>
<path d="M 658.8 301.0 L 663.8 310.9"/>
<path d="M 928.6 458.7 L 1037.5 411.8"/>
<path d="M 926.7 459.4 L 928.6 458.7"/>
<path d="M 1038.6 412.5 L 929.0 459.7"/>
<path d="M 929.0 459.7 L 927.2 460.4"/>
<path d="M 922.6 500.5 L 988.1 547.3"/>
<path d="M 921.0 499.4 L 922.6 500.5"/>
<path d="M 606.2 373.2 L 599.8 397.1"/>
<path d="M 598.9 397.1 L 605.1 373.2"/>
<path d="M 652.6 292.8 L 653.3 290.7 L 673.5 284.4"/>
<path d="M 409.8 745.0 L 415.8 736.7 L 426.9 730.0"/>
<path d="M 427.7 730.5 L 416.5 737.3 L 411.6 744.9"/>
<path d="M 496.6 572.4 L 496.4 574.9"/>
<path d="M 402.5 771.1 L 404.5 763.0"/>
<path d="M 406.3 763.1 L 404.0 771.1"/>
<path d="M 396.9 789.8 L 377.1 838.8"/>
<path d="M 375.7 838.9 L 395.2 789.9"/>
<path d="M 1048.7 406.9 L 1093.1 385.8 L 1116.8 355.1 L 1117.3 350.8 L 1111.9 337.4"/>
<path d="M 1111.9 337.4 L 1105.6 321.8"/>
<path d="M -0.8 712.0 L 1.2 717.9"/>
</g>
<g fill="none" stroke="#d4a64a" stroke-width="10" opacity="0.9" stroke-linecap="round" stroke-linejoin="round">
<path d="M 717.6 226.7 L 737.7 234.9 L 779.5 242.8"/>
<path d="M 778.6 243.6 L 736.4 235.5 L 718.2 228.1"/>
<path d="M 538.0 509.3 L 550.0 509.0"/>
<path d="M 507.1 510.1 L 538.0 509.3"/>
<path d="M 1206.4 877.4 L 1212.4 879.9"/>
<path d="M 1212.4 879.9 L 1232.4 896.6 L 1253.0 921.6 L 1258.8 929.3 L 1257.0 935.7"/>
<path d="M 1214.7 702.4 L 1215.7 701.0"/>
<path d="M 1215.5 702.5 L 1216.0 708.6"/>
<path d="M 1216.1 709.9 L 1238.7 730.0"/>
<path d="M 678.6 674.4 L 730.1 675.7 L 774.9 680.6 L 896.8 670.1 L 934.2 674.1 L 962.6 673.9 L 996.3 679.6 L 1020.9 674.2 L 1048.1 673.9 L 1088.9 682.1 L 1157.5 690.2"/>
<path d="M 554.0 692.0 L 574.7 683.5 L 615.3 675.6 L 678.6 674.4"/>
<path d="M 1560.6 294.2 L 1571.9 291.4"/>
<path d="M 1571.9 291.4 L 1591.7 286.1"/>
<path d="M 1590.4 386.0 L 1579.1 386.9"/>
<path d="M 601.6 887.9 L 700.1 883.3 L 712.9 886.1 L 735.1 898.6"/>
<path d="M 1205.2 876.8 L 1222.2 855.2 L 1217.9 850.3 L 1184.6 839.5 L 1179.9 820.5"/>
<path d="M 865.0 688.2 L 905.9 686.0 L 911.8 689.2 L 915.5 697.7"/>
<path d="M 1494.7 310.1 L 1538.7 299.5"/>
<path d="M 1148.2 336.9 L 1248.5 334.2"/>
<path d="M 1256.3 339.2 L 1303.4 335.6"/>
<path d="M 1303.4 335.6 L 1364.0 330.2"/>
<path d="M 1406.8 326.5 L 1428.3 324.5"/>
<path d="M 1269.3 401.5 L 1423.9 406.1 L 1474.3 401.3"/>
<path d="M -80.1 48.7 L -65.0 44.7 L -55.5 46.0 L -45.7 39.9 L -31.3 38.8 L -20.7 34.9 L 8.7 36.7"/>
<path d="M 152.7 132.2 L 204.7 127.1 L 215.3 134.2 L 240.8 144.2 L 269.8 147.0 L 290.2 145.6 L 297.5 148.4 L 334.3 138.9 L 337.9 130.3 L 326.4 116.7 L 326.8 108.7 L 344.8 110.1 L 350.1 106.7 L 357.4 110.1 L 359.4 115.5 L 370.9 117.6 L 387.0 128.2 L 395.9 131.1 L 410.1 128.2 L 460.3 140.0 L 472.8 140.2 L 477.2 137.5 L 476.5 140.2 L 470.9 141.8 L 447.9 142.3 L 471.9 145.8 L 492.8 145.0 L 546.6 155.6 L 583.4 158.3"/>
<path d="M 641.0 167.2 L 626.5 145.7"/>
<path d="M 893.8 -87.8 L 887.8 -59.3 L 875.1 -46.8 L 867.1 -20.4 L 860.4 -11.0 L 864.1 24.4"/>
<path d="M 814.2 170.9 L 823.8 157.3 L 844.8 139.6 L 851.3 129.0 L 851.0 121.4 L 865.6 109.7 L 865.9 103.6 L 862.8 102.4"/>
<path d="M 863.0 30.5 L 857.9 37.2 L 865.6 52.9"/>
<path d="M 545.2 325.4 L 528.3 324.5"/>
<path d="M 550.7 324.9 L 552.2 324.9"/>
<path d="M 552.2 324.9 L 568.9 324.3"/>
<path d="M 550.7 324.9 L 545.2 325.4"/>
<path d="M 507.6 359.8 L 520.6 344.4 L 522.9 331.1 L 526.8 324.0"/>
<path d="M 352.1 392.9 L 352.5 388.5"/>
<path d="M 352.7 366.9 L 374.2 361.3 L 453.3 358.6 L 466.2 360.5"/>
<path d="M 562.9 305.5 L 566.5 305.5"/>
<path d="M 352.5 388.5 L 352.7 366.9"/>
<path d="M 566.5 305.5 L 569.2 305.1"/>
<path d="M 353.1 393.6 L 349.9 416.6"/>
<path d="M -12.8 403.0 L 177.9 409.7"/>
<path d="M 641.0 167.2 L 652.8 184.8 L 657.7 187.8 L 732.5 192.9"/>
<path d="M 732.5 192.9 L 735.0 193.8"/>
<path d="M 641.0 167.2 L 614.0 164.7"/>
<path d="M 786.1 197.9 L 763.4 198.9 L 736.3 194.4"/>
<path d="M 626.2 262.2 L 624.6 262.0"/>
<path d="M 691.3 246.6 L 689.1 246.3"/>
<path d="M 619.9 276.1 L 620.8 274.8"/>
<path d="M 569.2 305.1 L 591.8 271.8"/>
<path d="M 630.8 262.6 L 626.2 262.2"/>
<path d="M 633.4 262.7 L 630.8 262.6"/>
<path d="M 1145.3 337.0 L 1148.2 336.9"/>
<path d="M 1111.9 337.4 L 1145.3 337.0"/>
<path d="M 1008.7 340.5 L 1062.0 364.6 L 1111.8 366.6 L 1269.3 401.5"/>
<path d="M 580.4 324.0 L 630.7 318.4 L 663.8 310.9"/>
<path d="M 550.7 693.8 L 554.0 692.0"/>
<path d="M 443.9 700.4 L 448.8 691.3"/>
<path d="M 427.7 730.5 L 480.9 727.9 L 528.7 709.0 L 550.7 693.8"/>
<path d="M 498.2 510.7 L 485.6 509.6"/>
<path d="M 354.7 636.1 L 359.3 634.9"/>
<path d="M 249.3 698.6 L 290.1 695.5 L 343.3 695.7 L 352.0 688.7 L 352.3 683.7"/>
<path d="M 121.5 705.9 L 125.1 706.2"/>
<path d="M 458.2 668.7 L 460.0 672.8 L 458.2 679.7 L 448.8 691.3"/>
<path d="M 458.2 668.7 L 457.7 668.1"/>
<path d="M 132.5 706.6 L 136.3 707.9"/>
<path d="M 1.2 717.9 L 66.1 709.5 L 121.5 705.9"/>
<path d="M 352.3 683.7 L 355.2 682.6"/>
<path d="M 429.8 628.9 L 442.8 629.4"/>
<path d="M 406.6 628.1 L 429.8 628.9"/>
<path d="M 359.3 634.9 L 380.2 634.6 L 382.9 633.0 L 383.8 627.5 L 406.6 628.1"/>
<path d="M 132.5 706.6 L 125.1 706.2"/>
<path d="M 355.2 682.6 L 405.9 671.1 L 431.1 672.5 L 457.3 681.7"/>
<path d="M 136.3 707.9 L 215.2 707.6 L 246.3 700.1 L 263.2 681.4 L 284.0 665.6 L 326.8 649.9 L 354.7 636.1"/>
<path d="M 453.4 503.8 L 404.9 495.6 L 339.3 493.0 L 253.5 493.2 L 73.4 486.2"/>
<path d="M -335.2 484.0 L -195.1 460.8 L -107.9 459.4 L 61.6 484.9 L 258.8 492.4 L 340.0 492.1 L 403.9 494.6 L 453.8 502.6"/>
<path d="M 466.7 506.2 L 453.4 503.8"/>
<path d="M 624.9 261.4 L 626.3 261.5"/>
<path d="M 562.6 306.4 L 562.3 306.5"/>
<path d="M 567.8 306.3 L 566.7 306.4"/>
<path d="M 566.7 306.4 L 562.6 306.4"/>
<path d="M 528.3 324.5 L 523.9 331.3 L 521.6 344.6 L 509.0 360.2"/>
<path d="M 507.0 510.7 L 498.2 510.7"/>
<path d="M 498.1 510.2 L 507.1 510.1"/>
<path d="M 522.7 510.8 L 497.9 511.4"/>
<path d="M 550.0 509.5 L 538.3 509.8"/>
<path d="M 476.6 507.1 L 487.1 508.7"/>
<path d="M 476.6 507.1 L 486.4 509.1"/>
<path d="M 499.1 509.5 L 522.0 509.1"/>
<path d="M 538.3 509.8 L 507.0 510.7"/>
<path d="M 497.9 511.4 L 484.8 510.0"/>
<path d="M 487.1 508.7 L 499.1 509.5"/>
<path d="M 486.4 509.1 L 498.1 510.2"/>
<path d="M 453.8 502.6 L 476.6 507.1"/>
<path d="M 485.6 509.6 L 466.7 506.2"/>
<path d="M 484.8 510.0 L 466.7 506.2"/>
<path d="M 544.9 324.8 L 550.7 324.9"/>
<path d="M 529.0 323.9 L 544.9 324.8"/>
<path d="M 626.3 261.5 L 631.1 262.0"/>
<path d="M 631.1 262.0 L 633.5 262.0"/>
<path d="M 910.2 299.3 L 881.3 286.4 L 846.7 277.1 L 814.0 258.3"/>
<path d="M 779.5 242.8 L 791.0 246.5"/>
<path d="M 624.6 262.0 L 620.8 274.8"/>
<path d="M 1269.3 401.5 L 1247.6 398.5 L 1112.9 367.5 L 1061.6 365.2 L 1007.3 341.0"/>
<path d="M 790.2 247.3 L 778.6 243.6"/>
<path d="M 590.2 159.6 L 588.0 159.2"/>
<path d="M 659.3 247.3 L 643.7 252.2 L 638.0 257.3"/>
<path d="M 1547.3 297.3 L 1560.6 294.2"/>
<path d="M 1464.1 317.5 L 1472.5 315.4"/>
<path d="M 1538.7 299.5 L 1547.3 297.3"/>
<path d="M 1248.5 334.2 L 1254.8 334.0 L 1256.3 339.2"/>
<path d="M 1431.6 324.2 L 1464.1 317.5"/>
<path d="M 864.2 25.2 L 863.0 30.5 L 851.2 34.2"/>
<path d="M 864.1 24.4 L 864.2 25.2"/>
<path d="M 601.6 887.9 L 603.7 890.2 L 641.3 895.1 L 713.7 895.0 L 766.7 907.5 L 809.0 906.8 L 833.6 913.4"/>
<path d="M 815.0 257.6 L 847.5 276.4 L 881.6 285.6 L 911.3 298.7"/>
<path d="M 689.1 246.3 L 679.2 245.5"/>
<path d="M 1394.7 327.9 L 1257.7 340.2 L 1255.3 339.8 L 1254.1 334.8 L 1248.5 334.2"/>
<path d="M 584.7 15.3 L 598.9 7.0 L 613.6 2.2"/>
<path d="M 679.2 245.5 L 667.9 244.7 L 659.3 247.3"/>
<path d="M 442.8 629.4 L 442.4 635.9 L 447.8 656.1 L 457.7 668.1"/>
<path d="M 349.1 416.6 L 352.1 392.9"/>
<path d="M 353.8 366.5 L 353.5 389.2"/>
<path d="M 353.5 389.2 L 353.1 393.6"/>
<path d="M 466.2 360.5 L 507.6 359.8"/>
<path d="M 509.0 360.2 L 466.2 360.5"/>
<path d="M 1215.4 708.6 L 1214.7 702.4"/>
<path d="M 1216.0 708.6 L 1216.1 709.9"/>
<path d="M 1216.1 709.9 L 1215.4 708.6"/>
<path d="M 1215.7 701.0 L 1215.5 702.5"/>
<path d="M 629.1 136.5 L 630.1 134.6"/>
<path d="M 58.0 45.1 L 67.5 47.5 L 76.1 55.4 L 82.4 68.7 L 110.9 95.6 L 115.9 102.7 L 114.6 112.2 L 116.9 116.5 L 131.3 124.9 L 152.7 132.2"/>
<path d="M 968.7 324.5 L 910.2 299.3"/>
<path d="M 911.3 298.7 L 968.6 323.2"/>
<path d="M 443.9 700.4 L 424.5 727.5 L 426.9 730.0"/>
<path d="M 626.2 140.8 L 629.1 136.5"/>
<path d="M 528.3 324.5 L 526.8 324.0"/>
<path d="M 562.3 306.5 L 529.0 323.9"/>
<path d="M 591.8 271.8 L 619.9 276.1"/>
<path d="M 800.8 249.8 L 815.0 257.6"/>
<path d="M 814.0 258.3 L 799.4 250.4"/>
<path d="M 625.5 142.7 L 626.2 140.8"/>
<path d="M 626.5 145.7 L 625.5 142.7"/>
<path d="M 613.6 2.2 L 626.5 -2.4"/>
<path d="M 583.3 17.7 L 584.7 15.3"/>
<path d="M 581.4 28.2 L 583.3 17.7"/>
<path d="M 581.8 53.2 L 579.0 44.4 L 581.4 28.2"/>
<path d="M 588.8 62.3 L 581.8 53.2"/>
<path d="M 590.3 64.1 L 588.8 62.3"/>
<path d="M 603.4 78.8 L 590.3 64.1"/>
<path d="M 608.3 84.3 L 603.4 78.8"/>
<path d="M 610.0 86.2 L 608.3 84.3"/>
<path d="M 621.6 99.7 L 610.0 86.2"/>
<path d="M 622.3 100.5 L 621.6 99.7"/>
<path d="M 633.4 114.8 L 623.1 101.4"/>
<path d="M 634.1 116.2 L 633.4 114.8"/>
<path d="M 634.8 125.1 L 634.1 116.2"/>
<path d="M 634.1 126.9 L 634.8 125.1"/>
<path d="M 623.1 101.4 L 622.3 100.5"/>
<path d="M 630.1 134.6 L 632.0 131.0"/>
<path d="M 632.0 131.0 L 634.1 126.9"/>
<path d="M 1491.7 398.4 L 1522.4 393.9"/>
<path d="M 1579.0 386.6 L 1588.5 385.8"/>
<path d="M 1588.5 385.8 L 1603.6 384.3"/>
<path d="M 1603.7 384.9 L 1590.4 386.0"/>
<path d="M 865.6 52.9 L 865.2 55.7"/>
<path d="M 1472.5 315.4 L 1494.7 310.1"/>
<path d="M 1482.4 313.8 L 1472.3 316.2"/>
<path d="M 1495.0 310.7 L 1482.4 313.8"/>
<path d="M 1547.9 298.0 L 1495.0 310.7"/>
<path d="M 1590.1 287.5 L 1561.4 294.6"/>
<path d="M 1593.9 285.3 L 1607.8 277.0"/>
<path d="M 1466.5 317.5 L 1464.2 318.0"/>
<path d="M 1472.3 316.2 L 1466.5 317.5"/>
<path d="M 1608.7 277.4 L 1593.5 286.3"/>
<path d="M 1591.7 286.1 L 1593.9 285.3"/>
<path d="M 1593.5 286.3 L 1590.1 287.5"/>
<path d="M 1539.5 391.8 L 1522.4 393.9"/>
<path d="M 1522.4 393.9 L 1539.4 391.4"/>
<path d="M 1539.4 391.4 L 1550.3 389.8"/>
<path d="M 1550.3 390.1 L 1539.5 391.8"/>
<path d="M 1550.3 389.8 L 1556.1 389.0"/>
<path d="M 1556.2 389.3 L 1550.3 390.1"/>
<path d="M 1556.1 389.0 L 1571.5 387.3"/>
<path d="M 1571.7 387.6 L 1556.2 389.3"/>
<path d="M 1571.5 387.3 L 1579.0 386.6"/>
<path d="M 1579.1 386.9 L 1571.7 387.6"/>
<path d="M 1464.2 318.0 L 1432.1 324.5"/>
<path d="M 1364.0 330.2 L 1396.4 327.3"/>
<path d="M 1406.7 326.9 L 1394.7 327.9"/>
<path d="M 1396.4 327.3 L 1406.8 326.5"/>
<path d="M 1432.1 324.5 L 1406.7 326.9"/>
<path d="M 1561.4 294.6 L 1547.9 298.0"/>
<path d="M 1428.3 324.5 L 1431.6 324.2"/>
<path d="M 1474.3 401.3 L 1491.7 398.4"/>
<path d="M 791.0 246.5 L 800.1 249.6"/>
<path d="M 800.1 249.6 L 800.8 249.8"/>
<path d="M 798.7 250.1 L 790.2 247.3"/>
<path d="M 799.4 250.4 L 798.7 250.1"/>
<path d="M 527.4 323.5 L 562.9 305.5"/>
<path d="M 567.8 306.3 L 569.2 305.1"/>
<path d="M 718.2 228.1 L 691.3 246.6"/>
<path d="M 638.0 257.3 L 633.4 262.7"/>
<path d="M 689.1 246.3 L 717.6 226.7"/>
<path d="M 736.3 194.4 L 735.0 193.8"/>
<path d="M 583.4 158.3 L 588.0 159.2"/>
<path d="M 513.6 925.9 L 537.8 920.9 L 543.7 905.0 L 547.6 902.9 L 601.6 887.9"/>
<path d="M 526.8 324.0 L 527.4 323.5"/>
<path d="M 527.4 323.5 L 529.0 323.9"/>
<path d="M 568.9 324.3 L 580.4 324.0"/>
<path d="M 529.0 323.9 L 528.3 324.5"/>
<path d="M 624.9 261.4 L 624.6 262.0"/>
<path d="M 177.9 409.7 L 286.8 414.2"/>
<path d="M 58.0 45.1 L 48.4 44.7"/>
<path d="M 614.0 164.7 L 590.2 159.6"/>
<path d="M 8.7 36.7 L 31.9 43.4 L 48.4 44.7"/>
<path d="M 48.4 44.7 L 58.0 45.1"/>
<path d="M 1007.3 341.0 L 968.7 324.5"/>
<path d="M 426.9 730.0 L 427.7 730.5"/>
<path d="M 968.6 323.2 L 1008.7 340.5"/>
<path d="M 286.8 414.2 L 349.9 416.6"/>
<path d="M 72.3 486.2 L 44.4 484.0 L -31.9 471.2"/>
<path d="M 73.4 486.2 L 72.3 486.2"/>
<path d="M 1206.4 877.4 L 1205.2 876.8"/>
<path d="M 1254.1 334.8 L 1254.1 333.8"/>
</g>
<g fill="none" stroke="#f2c75b" stroke-width="8" opacity="0.95" stroke-linecap="round" stroke-linejoin="round">
<path d="M 717.6 226.7 L 737.7 234.9 L 779.5 242.8"/>
<path d="M 778.6 243.6 L 736.4 235.5 L 718.2 228.1"/>
<path d="M 538.0 509.3 L 550.0 509.0"/>
<path d="M 507.1 510.1 L 538.0 509.3"/>
<path d="M 1206.4 877.4 L 1212.4 879.9"/>
<path d="M 1212.4 879.9 L 1232.4 896.6 L 1253.0 921.6 L 1258.8 929.3 L 1257.0 935.7"/>
<path d="M 1214.7 702.4 L 1215.7 701.0"/>
<path d="M 1215.5 702.5 L 1216.0 708.6"/>
<path d="M 1216.1 709.9 L 1238.7 730.0"/>
<path d="M 678.6 674.4 L 730.1 675.7 L 774.9 680.6 L 896.8 670.1 L 934.2 674.1 L 962.6 673.9 L 996.3 679.6 L 1020.9 674.2 L 1048.1 673.9 L 1088.9 682.1 L 1157.5 690.2"/>
<path d="M 554.0 692.0 L 574.7 683.5 L 615.3 675.6 L 678.6 674.4"/>
<path d="M 1560.6 294.2 L 1571.9 291.4"/>
<path d="M 1571.9 291.4 L 1591.7 286.1"/>
<path d="M 1590.4 386.0 L 1579.1 386.9"/>
<path d="M 601.6 887.9 L 700.1 883.3 L 712.9 886.1 L 735.1 898.6"/>
<path d="M 1205.2 876.8 L 1222.2 855.2 L 1217.9 850.3 L 1184.6 839.5 L 1179.9 820.5"/>
<path d="M 865.0 688.2 L 905.9 686.0 L 911.8 689.2 L 915.5 697.7"/>
<path d="M 1494.7 310.1 L 1538.7 299.5"/>
<path d="M 1148.2 336.9 L 1248.5 334.2"/>
<path d="M 1256.3 339.2 L 1303.4 335.6"/>
<path d="M 1303.4 335.6 L 1364.0 330.2"/>
<path d="M 1406.8 326.5 L 1428.3 324.5"/>
<path d="M 1269.3 401.5 L 1423.9 406.1 L 1474.3 401.3"/>
<path d="M -80.1 48.7 L -65.0 44.7 L -55.5 46.0 L -45.7 39.9 L -31.3 38.8 L -20.7 34.9 L 8.7 36.7"/>
<path d="M 152.7 132.2 L 204.7 127.1 L 215.3 134.2 L 240.8 144.2 L 269.8 147.0 L 290.2 145.6 L 297.5 148.4 L 334.3 138.9 L 337.9 130.3 L 326.4 116.7 L 326.8 108.7 L 344.8 110.1 L 350.1 106.7 L 357.4 110.1 L 359.4 115.5 L 370.9 117.6 L 387.0 128.2 L 395.9 131.1 L 410.1 128.2 L 460.3 140.0 L 472.8 140.2 L 477.2 137.5 L 476.5 140.2 L 470.9 141.8 L 447.9 142.3 L 471.9 145.8 L 492.8 145.0 L 546.6 155.6 L 583.4 158.3"/>
<path d="M 641.0 167.2 L 626.5 145.7"/>
<path d="M 893.8 -87.8 L 887.8 -59.3 L 875.1 -46.8 L 867.1 -20.4 L 860.4 -11.0 L 864.1 24.4"/>
<path d="M 814.2 170.9 L 823.8 157.3 L 844.8 139.6 L 851.3 129.0 L 851.0 121.4 L 865.6 109.7 L 865.9 103.6 L 862.8 102.4"/>
<path d="M 863.0 30.5 L 857.9 37.2 L 865.6 52.9"/>
<path d="M 545.2 325.4 L 528.3 324.5"/>
<path d="M 550.7 324.9 L 552.2 324.9"/>
<path d="M 552.2 324.9 L 568.9 324.3"/>
<path d="M 550.7 324.9 L 545.2 325.4"/>
<path d="M 507.6 359.8 L 520.6 344.4 L 522.9 331.1 L 526.8 324.0"/>
<path d="M 352.1 392.9 L 352.5 388.5"/>
<path d="M 352.7 366.9 L 374.2 361.3 L 453.3 358.6 L 466.2 360.5"/>
<path d="M 562.9 305.5 L 566.5 305.5"/>
<path d="M 352.5 388.5 L 352.7 366.9"/>
<path d="M 566.5 305.5 L 569.2 305.1"/>
<path d="M 353.1 393.6 L 349.9 416.6"/>
<path d="M -12.8 403.0 L 177.9 409.7"/>
<path d="M 641.0 167.2 L 652.8 184.8 L 657.7 187.8 L 732.5 192.9"/>
<path d="M 732.5 192.9 L 735.0 193.8"/>
<path d="M 641.0 167.2 L 614.0 164.7"/>
<path d="M 786.1 197.9 L 763.4 198.9 L 736.3 194.4"/>
<path d="M 626.2 262.2 L 624.6 262.0"/>
<path d="M 691.3 246.6 L 689.1 246.3"/>
<path d="M 619.9 276.1 L 620.8 274.8"/>
<path d="M 569.2 305.1 L 591.8 271.8"/>
<path d="M 630.8 262.6 L 626.2 262.2"/>
<path d="M 633.4 262.7 L 630.8 262.6"/>
<path d="M 1145.3 337.0 L 1148.2 336.9"/>
<path d="M 1111.9 337.4 L 1145.3 337.0"/>
<path d="M 1008.7 340.5 L 1062.0 364.6 L 1111.8 366.6 L 1269.3 401.5"/>
<path d="M 580.4 324.0 L 630.7 318.4 L 663.8 310.9"/>
<path d="M 550.7 693.8 L 554.0 692.0"/>
<path d="M 443.9 700.4 L 448.8 691.3"/>
<path d="M 427.7 730.5 L 480.9 727.9 L 528.7 709.0 L 550.7 693.8"/>
<path d="M 498.2 510.7 L 485.6 509.6"/>
<path d="M 354.7 636.1 L 359.3 634.9"/>
<path d="M 249.3 698.6 L 290.1 695.5 L 343.3 695.7 L 352.0 688.7 L 352.3 683.7"/>
<path d="M 121.5 705.9 L 125.1 706.2"/>
<path d="M 458.2 668.7 L 460.0 672.8 L 458.2 679.7 L 448.8 691.3"/>
<path d="M 458.2 668.7 L 457.7 668.1"/>
<path d="M 132.5 706.6 L 136.3 707.9"/>
<path d="M 1.2 717.9 L 66.1 709.5 L 121.5 705.9"/>
<path d="M 352.3 683.7 L 355.2 682.6"/>
<path d="M 429.8 628.9 L 442.8 629.4"/>
<path d="M 406.6 628.1 L 429.8 628.9"/>
<path d="M 359.3 634.9 L 380.2 634.6 L 382.9 633.0 L 383.8 627.5 L 406.6 628.1"/>
<path d="M 132.5 706.6 L 125.1 706.2"/>
<path d="M 355.2 682.6 L 405.9 671.1 L 431.1 672.5 L 457.3 681.7"/>
<path d="M 136.3 707.9 L 215.2 707.6 L 246.3 700.1 L 263.2 681.4 L 284.0 665.6 L 326.8 649.9 L 354.7 636.1"/>
<path d="M 453.4 503.8 L 404.9 495.6 L 339.3 493.0 L 253.5 493.2 L 73.4 486.2"/>
<path d="M -335.2 484.0 L -195.1 460.8 L -107.9 459.4 L 61.6 484.9 L 258.8 492.4 L 340.0 492.1 L 403.9 494.6 L 453.8 502.6"/>
<path d="M 466.7 506.2 L 453.4 503.8"/>
<path d="M 624.9 261.4 L 626.3 261.5"/>
<path d="M 562.6 306.4 L 562.3 306.5"/>
<path d="M 567.8 306.3 L 566.7 306.4"/>
<path d="M 566.7 306.4 L 562.6 306.4"/>
<path d="M 528.3 324.5 L 523.9 331.3 L 521.6 344.6 L 509.0 360.2"/>
<path d="M 507.0 510.7 L 498.2 510.7"/>
<path d="M 498.1 510.2 L 507.1 510.1"/>
<path d="M 522.7 510.8 L 497.9 511.4"/>
<path d="M 550.0 509.5 L 538.3 509.8"/>
<path d="M 476.6 507.1 L 487.1 508.7"/>
<path d="M 476.6 507.1 L 486.4 509.1"/>
<path d="M 499.1 509.5 L 522.0 509.1"/>
<path d="M 538.3 509.8 L 507.0 510.7"/>
<path d="M 497.9 511.4 L 484.8 510.0"/>
<path d="M 487.1 508.7 L 499.1 509.5"/>
<path d="M 486.4 509.1 L 498.1 510.2"/>
<path d="M 453.8 502.6 L 476.6 507.1"/>
<path d="M 485.6 509.6 L 466.7 506.2"/>
<path d="M 484.8 510.0 L 466.7 506.2"/>
<path d="M 544.9 324.8 L 550.7 324.9"/>
<path d="M 529.0 323.9 L 544.9 324.8"/>
<path d="M 626.3 261.5 L 631.1 262.0"/>
<path d="M 631.1 262.0 L 633.5 262.0"/>
<path d="M 910.2 299.3 L 881.3 286.4 L 846.7 277.1 L 814.0 258.3"/>
<path d="M 779.5 242.8 L 791.0 246.5"/>
<path d="M 624.6 262.0 L 620.8 274.8"/>
<path d="M 1269.3 401.5 L 1247.6 398.5 L 1112.9 367.5 L 1061.6 365.2 L 1007.3 341.0"/>
<path d="M 790.2 247.3 L 778.6 243.6"/>
<path d="M 590.2 159.6 L 588.0 159.2"/>
<path d="M 659.3 247.3 L 643.7 252.2 L 638.0 257.3"/>
<path d="M 1547.3 297.3 L 1560.6 294.2"/>
<path d="M 1464.1 317.5 L 1472.5 315.4"/>
<path d="M 1538.7 299.5 L 1547.3 297.3"/>
<path d="M 1248.5 334.2 L 1254.8 334.0 L 1256.3 339.2"/>
<path d="M 1431.6 324.2 L 1464.1 317.5"/>
<path d="M 864.2 25.2 L 863.0 30.5 L 851.2 34.2"/>
<path d="M 864.1 24.4 L 864.2 25.2"/>
<path d="M 601.6 887.9 L 603.7 890.2 L 641.3 895.1 L 713.7 895.0 L 766.7 907.5 L 809.0 906.8 L 833.6 913.4"/>
<path d="M 815.0 257.6 L 847.5 276.4 L 881.6 285.6 L 911.3 298.7"/>
<path d="M 689.1 246.3 L 679.2 245.5"/>
<path d="M 1394.7 327.9 L 1257.7 340.2 L 1255.3 339.8 L 1254.1 334.8 L 1248.5 334.2"/>
<path d="M 584.7 15.3 L 598.9 7.0 L 613.6 2.2"/>
<path d="M 679.2 245.5 L 667.9 244.7 L 659.3 247.3"/>
<path d="M 442.8 629.4 L 442.4 635.9 L 447.8 656.1 L 457.7 668.1"/>
<path d="M 349.1 416.6 L 352.1 392.9"/>
<path d="M 353.8 366.5 L 353.5 389.2"/>
<path d="M 353.5 389.2 L 353.1 393.6"/>
<path d="M 466.2 360.5 L 507.6 359.8"/>
<path d="M 509.0 360.2 L 466.2 360.5"/>
<path d="M 1215.4 708.6 L 1214.7 702.4"/>
<path d="M 1216.0 708.6 L 1216.1 709.9"/>
<path d="M 1216.1 709.9 L 1215.4 708.6"/>
<path d="M 1215.7 701.0 L 1215.5 702.5"/>
<path d="M 629.1 136.5 L 630.1 134.6"/>
<path d="M 58.0 45.1 L 67.5 47.5 L 76.1 55.4 L 82.4 68.7 L 110.9 95.6 L 115.9 102.7 L 114.6 112.2 L 116.9 116.5 L 131.3 124.9 L 152.7 132.2"/>
<path d="M 968.7 324.5 L 910.2 299.3"/>
<path d="M 911.3 298.7 L 968.6 323.2"/>
<path d="M 443.9 700.4 L 424.5 727.5 L 426.9 730.0"/>
<path d="M 626.2 140.8 L 629.1 136.5"/>
<path d="M 528.3 324.5 L 526.8 324.0"/>
<path d="M 562.3 306.5 L 529.0 323.9"/>
<path d="M 591.8 271.8 L 619.9 276.1"/>
<path d="M 800.8 249.8 L 815.0 257.6"/>
<path d="M 814.0 258.3 L 799.4 250.4"/>
<path d="M 625.5 142.7 L 626.2 140.8"/>
<path d="M 626.5 145.7 L 625.5 142.7"/>
<path d="M 613.6 2.2 L 626.5 -2.4"/>
<path d="M 583.3 17.7 L 584.7 15.3"/>
<path d="M 581.4 28.2 L 583.3 17.7"/>
<path d="M 581.8 53.2 L 579.0 44.4 L 581.4 28.2"/>
<path d="M 588.8 62.3 L 581.8 53.2"/>
<path d="M 590.3 64.1 L 588.8 62.3"/>
<path d="M 603.4 78.8 L 590.3 64.1"/>
<path d="M 608.3 84.3 L 603.4 78.8"/>
<path d="M 610.0 86.2 L 608.3 84.3"/>
<path d="M 621.6 99.7 L 610.0 86.2"/>
<path d="M 622.3 100.5 L 621.6 99.7"/>
<path d="M 633.4 114.8 L 623.1 101.4"/>
<path d="M 634.1 116.2 L 633.4 114.8"/>
<path d="M 634.8 125.1 L 634.1 116.2"/>
<path d="M 634.1 126.9 L 634.8 125.1"/>
<path d="M 623.1 101.4 L 622.3 100.5"/>
<path d="M 630.1 134.6 L 632.0 131.0"/>
<path d="M 632.0 131.0 L 634.1 126.9"/>
<path d="M 1491.7 398.4 L 1522.4 393.9"/>
<path d="M 1579.0 386.6 L 1588.5 385.8"/>
<path d="M 1588.5 385.8 L 1603.6 384.3"/>
<path d="M 1603.7 384.9 L 1590.4 386.0"/>
<path d="M 865.6 52.9 L 865.2 55.7"/>
<path d="M 1472.5 315.4 L 1494.7 310.1"/>
<path d="M 1482.4 313.8 L 1472.3 316.2"/>
<path d="M 1495.0 310.7 L 1482.4 313.8"/>
<path d="M 1547.9 298.0 L 1495.0 310.7"/>
<path d="M 1590.1 287.5 L 1561.4 294.6"/>
<path d="M 1593.9 285.3 L 1607.8 277.0"/>
<path d="M 1466.5 317.5 L 1464.2 318.0"/>
<path d="M 1472.3 316.2 L 1466.5 317.5"/>
<path d="M 1608.7 277.4 L 1593.5 286.3"/>
<path d="M 1591.7 286.1 L 1593.9 285.3"/>
<path d="M 1593.5 286.3 L 1590.1 287.5"/>
<path d="M 1539.5 391.8 L 1522.4 393.9"/>
<path d="M 1522.4 393.9 L 1539.4 391.4"/>
<path d="M 1539.4 391.4 L 1550.3 389.8"/>
<path d="M 1550.3 390.1 L 1539.5 391.8"/>
<path d="M 1550.3 389.8 L 1556.1 389.0"/>
<path d="M 1556.2 389.3 L 1550.3 390.1"/>
<path d="M 1556.1 389.0 L 1571.5 387.3"/>
<path d="M 1571.7 387.6 L 1556.2 389.3"/>
<path d="M 1571.5 387.3 L 1579.0 386.6"/>
<path d="M 1579.1 386.9 L 1571.7 387.6"/>
<path d="M 1464.2 318.0 L 1432.1 324.5"/>
<path d="M 1364.0 330.2 L 1396.4 327.3"/>
<path d="M 1406.7 326.9 L 1394.7 327.9"/>
<path d="M 1396.4 327.3 L 1406.8 326.5"/>
<path d="M 1432.1 324.5 L 1406.7 326.9"/>
<path d="M 1561.4 294.6 L 1547.9 298.0"/>
<path d="M 1428.3 324.5 L 1431.6 324.2"/>
<path d="M 1474.3 401.3 L 1491.7 398.4"/>
<path d="M 791.0 246.5 L 800.1 249.6"/>
<path d="M 800.1 249.6 L 800.8 249.8"/>
<path d="M 798.7 250.1 L 790.2 247.3"/>
<path d="M 799.4 250.4 L 798.7 250.1"/>
<path d="M 527.4 323.5 L 562.9 305.5"/>
<path d="M 567.8 306.3 L 569.2 305.1"/>
<path d="M 718.2 228.1 L 691.3 246.6"/>
<path d="M 638.0 257.3 L 633.4 262.7"/>
<path d="M 689.1 246.3 L 717.6 226.7"/>
<path d="M 736.3 194.4 L 735.0 193.8"/>
<path d="M 583.4 158.3 L 588.0 159.2"/>
<path d="M 513.6 925.9 L 537.8 920.9 L 543.7 905.0 L 547.6 902.9 L 601.6 887.9"/>
<path d="M 526.8 324.0 L 527.4 323.5"/>
<path d="M 527.4 323.5 L 529.0 323.9"/>
<path d="M 568.9 324.3 L 580.4 324.0"/>
<path d="M 529.0 323.9 L 528.3 324.5"/>
<path d="M 624.9 261.4 L 624.6 262.0"/>
<path d="M 177.9 409.7 L 286.8 414.2"/>
<path d="M 58.0 45.1 L 48.4 44.7"/>
<path d="M 614.0 164.7 L 590.2 159.6"/>
<path d="M 8.7 36.7 L 31.9 43.4 L 48.4 44.7"/>
<path d="M 48.4 44.7 L 58.0 45.1"/>
<path d="M 1007.3 341.0 L 968.7 324.5"/>
<path d="M 426.9 730.0 L 427.7 730.5"/>
<path d="M 968.6 323.2 L 1008.7 340.5"/>
<path d="M 286.8 414.2 L 349.9 416.6"/>
<path d="M 72.3 486.2 L 44.4 484.0 L -31.9 471.2"/>
<path d="M 73.4 486.2 L 72.3 486.2"/>
<path d="M 1206.4 877.4 L 1205.2 876.8"/>
<path d="M 1254.1 334.8 L 1254.1 333.8"/>
</g>
<g fill="none" stroke="#6b6b6b" stroke-width="3" opacity="0.7" stroke-linecap="round" stroke-linejoin="round" stroke-dasharray="6 6">
<path d="M 1076.2 178.8 L 1074.1 182.2"/>
<path d="M 1334.3 -67.8 L 1304.6 -51.8 L 1289.5 -39.3 L 1243.5 -10.2 L 1224.6 11.2 L 1210.1 45.1 L 1167.7 75.1 L 1129.4 109.5"/>
<path d="M 651.6 384.3 L 600.1 398.4"/>
<path d="M 775.3 350.3 L 844.9 330.7 L 876.2 314.5"/>
<path d="M 680.2 376.4 L 664.0 380.8"/>
<path d="M 1074.1 182.2 L 1059.2 204.9 L 1051.5 212.0 L 965.1 262.7"/>
<path d="M 1123.8 115.0 L 1119.8 117.9"/>
<path d="M 929.5 283.4 L 919.9 289.0"/>
<path d="M 1103.9 135.1 L 1076.2 178.8"/>
<path d="M 775.0 96.3 L 777.9 97.9"/>
<path d="M 846.3 106.1 L 853.9 100.3 L 857.9 93.7 L 858.1 65.4"/>
<path d="M 701.4 73.1 L 715.0 75.3"/>
<path d="M 864.8 25.2 L 865.1 33.3 L 858.4 48.7 L 858.2 60.1"/>
<path d="M 862.3 3.9 L 862.5 5.5"/>
<path d="M 629.5 132.6 L 631.2 129.4"/>
<path d="M 631.2 129.4 L 632.9 113.6 L 660.2 83.2 L 672.1 76.8 L 692.4 73.0"/>
<path d="M 701.4 73.1 L 692.4 73.0"/>
<path d="M 826.1 111.7 L 832.7 110.8"/>
<path d="M 777.9 97.9 L 783.0 100.9"/>
<path d="M 867.3 -19.5 L 861.2 -10.2 L 862.3 3.9"/>
<path d="M 810.5 132.5 L 813.7 130.8"/>
<path d="M 769.5 193.0 L 778.5 176.7 L 782.1 164.0 L 787.5 157.1 L 786.6 149.2 L 788.6 145.0 L 810.5 132.5"/>
<path d="M 827.7 123.6 L 851.4 108.3"/>
<path d="M 858.5 65.5 L 859.1 73.2"/>
<path d="M 768.7 197.6 L 769.5 193.0"/>
<path d="M 858.8 93.1 L 858.7 78.2"/>
<path d="M 374.6 756.5 L 363.0 794.6"/>
<path d="M 485.9 -51.0 L 552.6 24.7"/>
<path d="M 552.6 24.7 L 557.8 30.8"/>
<path d="M 485.6 429.6 L 493.3 413.2 L 494.4 400.6"/>
<path d="M 488.1 429.0 L 493.0 421.7 L 497.2 405.2 L 493.1 390.5"/>
<path d="M 489.4 427.3 L 496.6 406.6 L 494.3 393.1"/>
<path d="M 476.9 450.5 L 483.7 435.3 L 497.0 422.9 L 505.8 410.0"/>
<path d="M 490.9 419.3 L 493.2 411.5"/>
<path d="M 506.3 410.1 L 509.9 399.9"/>
<path d="M 509.5 399.9 L 505.8 410.0"/>
<path d="M 487.8 424.3 L 492.1 411.1"/>
<path d="M 484.5 434.1 L 485.3 432.8"/>
<path d="M 500.1 418.7 L 505.8 398.7"/>
<path d="M 485.7 421.5 L 488.7 413.6"/>
<path d="M 485.9 422.6 L 489.3 413.4"/>
<path d="M 484.5 433.1 L 492.8 423.6 L 497.1 409.1 L 497.1 399.6 L 493.1 390.5"/>
<path d="M 489.6 421.4 L 492.6 410.1"/>
<path d="M 472.9 461.7 L 465.5 478.9"/>
<path d="M 503.7 414.6 L 506.3 410.1"/>
<path d="M 488.6 423.3 L 492.1 411.1"/>
<path d="M 499.1 420.4 L 506.4 398.7"/>
<path d="M 486.3 428.0 L 493.2 411.5"/>
<path d="M 491.8 389.1 L 496.2 406.6 L 485.3 432.8"/>
<path d="M 494.1 424.9 L 500.0 417.6 L 505.4 398.7"/>
<path d="M 482.0 427.9 L 488.7 413.6"/>
<path d="M 490.8 394.5 L 492.6 405.6 L 486.3 428.0"/>
<path d="M 443.9 547.1 L 444.1 546.5"/>
<path d="M 485.3 432.8 L 486.7 430.6"/>
<path d="M 476.2 450.7 L 472.9 461.7"/>
<path d="M 484.5 433.1 L 486.3 430.5"/>
<path d="M 489.1 403.4 L 491.0 398.0"/>
<path d="M 489.6 403.4 L 491.0 398.0"/>
<path d="M 481.9 429.2 L 482.5 427.9"/>
<path d="M 488.9 402.7 L 490.5 394.6"/>
<path d="M 491.0 410.4 L 485.5 428.3"/>
<path d="M 492.1 388.6 L 491.0 387.1"/>
<path d="M 491.6 388.8 L 491.0 387.1"/>
<path d="M 487.4 378.0 L 489.6 382.7"/>
<path d="M 486.7 412.8 L 489.1 403.4"/>
<path d="M 479.4 437.6 L 481.9 429.2"/>
<path d="M 483.7 432.6 L 485.2 424.1"/>
<path d="M 487.9 377.9 L 490.6 385.9"/>
<path d="M 478.3 437.3 L 481.9 429.2"/>
<path d="M 483.2 419.8 L 486.2 414.0"/>
<path d="M 486.9 412.8 L 488.4 408.6"/>
<path d="M 481.3 428.9 L 487.2 415.4"/>
<path d="M 490.5 390.3 L 493.4 401.1"/>
<path d="M 485.7 421.5 L 481.4 436.5"/>
<path d="M 482.6 434.4 L 485.3 422.9"/>
<path d="M 491.0 390.4 L 494.4 400.6"/>
<path d="M 480.0 437.6 L 487.2 416.4"/>
<path d="M 478.3 437.3 L 483.1 426.5"/>
<path d="M 472.9 450.4 L 478.8 430.6"/>
<path d="M 473.2 449.4 L 481.7 436.8"/>
<path d="M 483.2 419.8 L 479.7 431.1"/>
<path d="M 467.7 461.5 L 425.0 605.2 L 405.9 699.6 L 367.5 789.4 L 294.9 1019.9 L 280.7 1053.0 L 242.6 1113.2 L 228.5 1145.2 L 222.3 1183.1 L 225.9 1215.2 L 233.4 1239.1"/>
<path d="M 478.8 430.6 L 487.8 401.2 L 488.5 390.4"/>
<path d="M 491.1 389.0 L 495.1 399.7 L 495.1 409.5 L 476.2 450.7"/>
<path d="M 491.6 397.3 L 491.1 395.7"/>
<path d="M 490.8 394.5 L 490.4 393.1"/>
<path d="M 486.1 378.5 L 486.9 380.0"/>
<path d="M 494.2 395.3 L 493.9 393.5"/>
<path d="M 490.1 424.1 L 488.9 426.9"/>
<path d="M 490.6 425.2 L 489.1 427.0"/>
<path d="M 489.5 388.0 L 489.5 387.9"/>
<path d="M 486.5 381.5 L 485.5 378.9"/>
<path d="M 492.6 410.1 L 492.9 408.7"/>
<path d="M 493.2 411.5 L 493.4 410.1"/>
<path d="M 486.3 428.0 L 485.6 429.6"/>
<path d="M 493.7 406.7 L 492.9 408.7"/>
<path d="M 488.9 388.1 L 489.5 389.9"/>
<path d="M 493.3 406.7 L 493.2 405.6"/>
<path d="M 491.1 395.7 L 490.8 394.5"/>
<path d="M 492.7 403.0 L 493.2 405.6"/>
<path d="M 494.2 391.6 L 495.3 394.3"/>
<path d="M 491.2 396.7 L 491.1 395.7"/>
<path d="M 493.2 403.0 L 493.4 401.1"/>
<path d="M 490.1 388.2 L 489.9 387.7"/>
<path d="M 491.0 398.0 L 491.2 396.7"/>
<path d="M 489.3 413.4 L 490.1 411.7"/>
<path d="M 485.6 429.6 L 484.5 431.4"/>
<path d="M 493.1 390.5 L 492.4 389.1"/>
<path d="M 469.7 461.4 L 472.9 450.4"/>
<path d="M 492.1 411.1 L 492.6 410.1"/>
<path d="M 490.1 385.9 L 489.0 384.3"/>
<path d="M 490.4 389.4 L 489.5 388.0"/>
<path d="M 480.7 440.8 L 483.7 435.3"/>
<path d="M 493.3 408.8 L 493.3 406.7"/>
<path d="M 482.5 422.5 L 485.3 417.9"/>
<path d="M 480.6 437.5 L 485.9 419.0"/>
<path d="M 492.6 405.6 L 493.2 403.0"/>
<path d="M 490.3 389.5 L 490.1 388.2"/>
<path d="M 488.7 413.6 L 491.5 409.3"/>
<path d="M 486.6 422.6 L 489.3 413.4"/>
<path d="M 490.6 404.2 L 491.6 397.3"/>
<path d="M 488.4 402.6 L 490.4 393.1"/>
<path d="M 491.3 404.7 L 491.6 397.3"/>
<path d="M 488.4 408.6 L 491.2 396.7"/>
<path d="M 493.9 405.6 L 494.9 400.6"/>
<path d="M 467.2 461.5 L 487.2 396.8 L 485.6 383.0 L 479.3 368.1 L 479.4 361.0 L 493.9 340.3"/>
<path d="M 494.4 340.4 L 479.9 361.0 L 479.8 368.1 L 486.9 385.5 L 487.7 396.9 L 467.7 461.5"/>
<path d="M 232.9 1239.3 L 225.5 1215.3 L 221.8 1183.1 L 228.1 1145.1 L 242.2 1113.2 L 280.3 1053.0 L 294.6 1019.9 L 370.3 780.0 L 405.2 699.5 L 424.5 605.2 L 467.2 461.5"/>
<path d="M 557.4 31.0 L 552.2 24.8"/>
<path d="M 348.6 855.8 L 347.0 875.6"/>
<path d="M 339.1 899.5 L 331.8 919.9"/>
<path d="M 348.2 870.3 L 347.0 879.2"/>
<path d="M 354.6 841.3 L 348.3 861.2 L 348.2 870.3"/>
<path d="M 356.3 841.4 L 348.7 867.0"/>
<path d="M 355.3 841.3 L 348.5 865.3"/>
<path d="M 357.1 841.5 L 348.7 869.1"/>
<path d="M 358.0 841.6 L 349.2 867.3"/>
<path d="M 357.7 823.2 L 346.4 859.6 L 346.4 875.6"/>
<path d="M 359.0 814.8 L 346.4 851.9 L 345.6 875.6"/>
<path d="M 340.9 891.8 L 341.7 890.2"/>
<path d="M 339.8 894.1 L 340.9 891.8"/>
<path d="M 334.8 902.4 L 339.8 894.1"/>
<path d="M 333.4 903.5 L 340.9 891.8"/>
<path d="M 359.4 814.9 L 357.7 823.2"/>
<path d="M 330.1 922.1 L 339.8 894.1"/>
<path d="M 333.0 903.4 L 341.7 890.2 L 345.2 879.6"/>
<path d="M 422.6 621.7 L 431.0 593.4"/>
<path d="M 422.7 624.0 L 418.2 656.7"/>
<path d="M 417.4 656.7 L 422.1 624.1"/>
<path d="M 416.6 693.1 L 410.8 702.8 L 384.5 731.7 L 378.8 743.0"/>
<path d="M 377.0 742.6 L 381.0 734.6 L 409.9 702.6 L 415.5 693.0"/>
<path d="M 418.0 671.3 L 417.5 686.0"/>
<path d="M 416.7 692.4 L 416.6 693.1"/>
<path d="M 423.1 621.7 L 422.7 624.0"/>
<path d="M 363.0 794.6 L 360.5 802.7"/>
<path d="M 378.8 743.0 L 374.6 756.5"/>
<path d="M 373.1 756.3 L 377.0 742.6"/>
<path d="M 418.2 661.5 L 418.2 663.3"/>
<path d="M 360.0 802.8 L 362.4 794.8"/>
<path d="M 422.1 624.1 L 422.6 621.7"/>
<path d="M 415.5 693.0 L 415.7 692.2"/>
<path d="M 417.4 657.7 L 417.4 656.7"/>
<path d="M 417.1 663.2 L 417.2 661.4"/>
<path d="M 416.4 685.4 L 416.9 671.2"/>
<path d="M 418.2 656.7 L 418.1 657.6"/>
<path d="M 416.9 671.2 L 417.1 663.2"/>
<path d="M 418.1 657.6 L 418.2 661.5"/>
<path d="M 362.4 794.8 L 373.1 756.3"/>
<path d="M 418.2 663.3 L 418.0 671.3"/>
<path d="M 417.2 661.4 L 417.4 657.7"/>
<path d="M 415.7 692.2 L 416.4 685.4"/>
<path d="M 417.5 686.0 L 416.7 692.4"/>
<path d="M 431.0 593.4 L 443.9 547.1"/>
<path d="M 360.5 802.7 L 321.4 926.4"/>
<path d="M 321.0 926.3 L 360.0 802.8"/>
<path d="M 431.4 593.4 L 423.1 621.7"/>
<path d="M 629.2 -25.5 L 619.0 -11.4 L 584.8 8.9"/>
<path d="M 583.5 9.1 L 618.6 -11.5 L 628.6 -25.6"/>
<path d="M 581.9 12.3 L 578.3 21.5 L 577.1 44.4 L 581.0 54.6 L 587.7 63.2"/>
<path d="M 587.3 63.3 L 580.2 54.6 L 576.8 45.5 L 576.8 21.2 L 580.3 12.9"/>
<path d="M 580.3 12.9 L 583.5 9.1"/>
<path d="M 584.8 8.9 L 581.9 12.3"/>
<path d="M 587.7 63.2 L 625.1 106.3 L 628.4 114.1 L 628.6 125.5 L 577.2 212.5 L 571.9 256.3 L 561.6 283.8 L 554.7 291.6 L 523.0 315.1"/>
<path d="M 525.9 311.6 L 555.8 290.3 L 561.2 283.7 L 570.7 259.1 L 576.6 212.2 L 627.6 125.4 L 628.1 116.7 L 624.6 106.5 L 587.3 63.3"/>
<path d="M 858.2 62.4 L 858.3 63.8"/>
<path d="M 858.2 60.1 L 858.2 62.4"/>
<path d="M 715.0 75.3 L 733.0 80.0"/>
<path d="M 733.0 80.0 L 756.8 86.9 L 775.0 96.3"/>
<path d="M 786.3 102.8 L 798.1 108.6 L 813.7 111.8"/>
<path d="M 783.0 100.9 L 786.3 102.8"/>
<path d="M 345.7 878.7 L 344.4 888.8"/>
<path d="M 913.4 292.4 L 902.3 298.5"/>
<path d="M 490.1 388.2 L 490.6 389.3"/>
<path d="M 482.2 435.9 L 484.5 433.1"/>
<path d="M 489.5 388.0 L 490.2 389.5"/>
<path d="M 491.2 387.0 L 492.1 388.5"/>
<path d="M 490.8 387.2 L 491.6 388.8"/>
<path d="M 498.8 385.0 L 495.8 383.4"/>
<path d="M 495.3 341.9 L 492.8 345.3"/>
<path d="M 533.2 305.1 L 494.4 340.4"/>
<path d="M 537.5 302.3 L 543.5 297.8"/>
<path d="M 486.9 349.4 L 490.4 345.7"/>
<path d="M 544.0 297.9 L 537.0 302.1"/>
<path d="M 489.8 345.6 L 487.4 349.5"/>
<path d="M 493.9 340.3 L 513.7 317.8 L 532.8 304.9"/>
<path d="M 493.3 406.7 L 492.9 408.7"/>
<path d="M 494.6 395.0 L 494.0 393.5"/>
<path d="M 491.0 387.1 L 490.1 385.9"/>
<path d="M 490.5 390.3 L 490.3 389.5"/>
<path d="M 489.5 387.9 L 486.5 381.5"/>
<path d="M 492.1 388.5 L 492.4 389.1"/>
<path d="M 490.6 389.3 L 491.0 390.4"/>
<path d="M 491.0 390.4 L 490.4 389.4"/>
<path d="M 491.8 389.1 L 491.6 388.8"/>
<path d="M 493.2 403.0 L 493.2 405.6"/>
<path d="M 490.2 389.5 L 490.5 390.3"/>
<path d="M 490.6 385.9 L 491.2 387.0"/>
<path d="M 490.1 385.9 L 490.8 387.2"/>
<path d="M 488.7 387.4 L 488.9 388.1"/>
<path d="M 491.0 387.1 L 490.6 385.9"/>
<path d="M 489.9 387.7 L 486.9 380.0"/>
<path d="M 489.5 389.9 L 490.4 393.1"/>
<path d="M 492.4 389.1 L 492.1 388.6"/>
<path d="M 491.6 388.8 L 491.8 389.1"/>
<path d="M 488.2 408.2 L 489.6 403.4"/>
<path d="M 488.5 390.4 L 488.3 388.3"/>
<path d="M 488.3 388.3 L 486.5 381.5"/>
<path d="M 552.2 24.8 L 485.4 -50.8"/>
<path d="M 490.3 387.4 L 491.1 389.0"/>
<path d="M 486.9 380.0 L 490.3 387.4"/>
<path d="M 678.4 377.1 L 675.0 377.9"/>
<path d="M 663.9 380.6 L 680.2 376.4"/>
<path d="M 652.3 383.8 L 655.0 383.1"/>
<path d="M 775.3 350.3 L 752.3 356.7"/>
<path d="M 765.5 352.8 L 770.9 351.2"/>
<path d="M 965.1 262.7 L 942.7 276.1"/>
<path d="M 932.4 281.9 L 941.9 277.1"/>
<path d="M 959.0 265.8 L 976.8 255.6"/>
<path d="M 1111.3 124.5 L 1119.1 117.6"/>
<path d="M 1126.8 111.8 L 1127.9 110.5"/>
<path d="M 864.6 24.4 L 864.8 25.2"/>
<path d="M 862.5 5.5 L 864.6 24.4"/>
<path d="M 856.9 74.2 L 856.8 66.1"/>
<path d="M 857.4 76.5 L 855.9 69.9"/>
<path d="M 855.9 66.0 L 856.0 63.9"/>
<path d="M 856.8 66.1 L 856.9 63.9"/>
<path d="M 856.4 66.0 L 856.5 63.9"/>
<path d="M 856.8 70.3 L 856.4 68.1"/>
<path d="M 856.4 72.0 L 856.4 66.0"/>
<path d="M 857.4 76.5 L 858.1 65.4"/>
<path d="M 856.5 76.2 L 855.9 66.0"/>
<path d="M 832.7 110.8 L 834.2 110.4"/>
<path d="M 532.8 304.9 L 553.3 291.0 L 560.2 283.1 L 570.1 257.2 L 573.1 219.7 L 576.0 210.6 L 612.2 152.3 L 626.5 123.2 L 626.2 114.2 L 622.0 104.6 L 573.8 49.4"/>
<path d="M 574.2 49.3 L 622.4 104.5 L 626.7 114.2 L 627.1 123.3 L 612.6 152.5 L 576.5 210.7 L 573.6 219.7 L 570.6 257.2 L 560.7 283.1 L 553.7 291.2 L 533.2 305.1"/>
<path d="M 598.1 398.9 L 576.6 401.3 L 557.2 398.6"/>
<path d="M 600.1 398.4 L 598.1 398.9"/>
<path d="M 682.6 375.7 L 682.2 375.9"/>
<path d="M 682.2 375.9 L 680.2 376.4"/>
<path d="M 539.7 395.0 L 498.8 385.0"/>
<path d="M 557.2 398.6 L 539.7 395.0"/>
<path d="M 338.4 902.8 L 341.3 896.2"/>
<path d="M 339.1 899.5 L 344.4 888.8"/>
<path d="M 339.0 902.9 L 340.1 899.0"/>
<path d="M 339.5 902.9 L 341.7 896.3"/>
<path d="M 340.0 903.0 L 341.7 896.3"/>
<path d="M 340.6 903.0 L 343.0 896.1"/>
<path d="M 341.0 903.1 L 343.0 896.1"/>
<path d="M 341.6 903.1 L 343.2 898.9"/>
<path d="M 342.8 903.2 L 343.2 898.9"/>
<path d="M 343.4 903.3 L 343.6 896.6"/>
<path d="M 343.9 903.3 L 345.5 897.2"/>
<path d="M 345.0 903.4 L 345.5 897.2"/>
<path d="M 346.0 903.5 L 346.4 897.1"/>
<path d="M 346.6 903.6 L 346.4 897.1"/>
<path d="M 341.7 896.3 L 342.2 894.2"/>
<path d="M 343.0 896.1 L 344.3 890.9"/>
<path d="M 343.6 896.6 L 343.5 893.9"/>
<path d="M 343.2 898.9 L 343.6 896.6"/>
<path d="M 344.3 890.9 L 346.0 885.2"/>
<path d="M 344.3 890.9 L 344.4 888.8"/>
<path d="M 343.8 890.7 L 344.8 888.9"/>
<path d="M 345.5 897.2 L 347.0 879.2"/>
<path d="M 346.4 897.1 L 346.8 888.1"/>
<path d="M 345.7 893.9 L 346.6 891.2"/>
<path d="M 346.4 893.8 L 346.0 891.3"/>
<path d="M 346.0 885.2 L 346.4 875.6"/>
<path d="M 347.0 875.6 L 346.5 878.3"/>
<path d="M 345.6 875.6 L 345.7 878.7"/>
<path d="M 346.5 885.2 L 346.3 883.5"/>
<path d="M 346.0 885.2 L 346.8 883.5"/>
<path d="M 346.8 888.1 L 351.0 874.8"/>
<path d="M 346.8 888.1 L 358.5 847.1"/>
<path d="M 347.8 885.1 L 348.1 894.0"/>
<path d="M 345.2 879.6 L 345.3 875.1"/>
<path d="M 465.5 478.9 L 447.8 533.9"/>
<path d="M 464.3 478.8 L 469.7 461.4"/>
<path d="M 447.8 533.9 L 444.4 546.5"/>
<path d="M 447.3 533.8 L 464.3 478.8"/>
<path d="M 444.1 546.5 L 447.3 533.8"/>
<path d="M 444.4 546.5 L 431.4 593.4"/>
<path d="M 533.2 305.1 L 518.8 315.1 L 494.4 340.4"/>
<path d="M 493.9 340.3 L 518.5 315.0 L 532.8 304.9"/>
<path d="M 486.7 375.0 L 495.8 383.4"/>
<path d="M 502.7 334.0 L 515.4 321.8"/>
<path d="M 512.5 324.2 L 502.7 334.0"/>
<path d="M 492.8 345.3 L 482.9 359.5 L 486.7 375.0"/>
<path d="M 531.4 307.7 L 526.4 311.2"/>
<path d="M 492.8 344.7 L 481.4 361.0 L 481.4 367.6 L 486.1 378.5"/>
<path d="M 495.6 341.6 L 495.3 341.9"/>
<path d="M 858.1 65.4 L 858.3 63.8"/>
<path d="M 858.7 78.2 L 858.3 63.8"/>
<path d="M 859.1 73.2 L 858.7 78.2"/>
<path d="M 732.8 361.9 L 752.2 356.5"/>
<path d="M 682.6 375.7 L 732.8 361.9"/>
<path d="M 499.4 336.3 L 514.4 321.4"/>
<path d="M 515.9 322.1 L 498.0 339.0"/>
<path d="M 485.5 378.9 L 480.5 362.8 L 487.8 349.9"/>
<path d="M 525.9 311.6 L 515.4 321.8"/>
<path d="M 514.1 324.6 L 503.5 334.7"/>
<path d="M 502.7 334.0 L 500.8 335.8"/>
<path d="M 494.4 342.2 L 500.8 335.8"/>
<path d="M 498.0 339.0 L 495.6 341.6"/>
<path d="M 488.2 350.0 L 492.3 344.6"/>
<path d="M 487.8 349.9 L 492.8 344.7"/>
<path d="M 494.4 342.2 L 499.4 336.3"/>
<path d="M 560.3 34.3 L 557.4 31.0"/>
<path d="M 557.8 30.8 L 560.8 34.2"/>
<path d="M 560.8 34.2 L 565.7 39.8"/>
<path d="M 565.2 39.8 L 560.3 34.3"/>
<path d="M 567.1 41.2 L 574.2 49.3"/>
<path d="M 573.8 49.4 L 566.8 41.6"/>
<path d="M 565.7 39.8 L 567.1 41.2"/>
<path d="M 566.8 41.6 L 565.2 39.8"/>
<path d="M 876.2 314.5 L 894.2 303.3"/>
<path d="M 919.9 289.0 L 913.4 292.4"/>
<path d="M 1111.3 124.5 L 1106.9 130.1"/>
<path d="M 1106.9 130.1 L 1103.9 135.1"/>
<path d="M 498.0 339.0 L 500.8 335.8"/>
<path d="M 492.3 344.6 L 494.4 342.2"/>
<path d="M 523.0 315.1 L 518.6 320.7"/>
<path d="M 499.2 338.4 L 495.6 341.6"/>
<path d="M 439.5 561.9 L 427.0 604.4"/>
<path d="M 436.3 572.9 L 437.8 569.3"/>
<path d="M 435.8 574.5 L 434.4 577.8"/>
<path d="M 434.9 577.8 L 435.3 574.5"/>
<path d="M 426.6 604.4 L 439.0 561.8"/>
<path d="M 439.2 565.9 L 438.2 568.1"/>
<path d="M 1129.4 109.5 L 1123.8 115.0"/>
<path d="M 1119.8 117.9 L 1111.3 124.5"/>
<path d="M 814.9 111.9 L 826.1 111.7"/>
<path d="M 813.9 111.8 L 814.9 111.9"/>
<path d="M 813.7 111.8 L 813.9 111.8"/>
<path d="M 834.2 110.4 L 846.1 106.1"/>
<path d="M 846.1 106.1 L 846.3 106.1"/>
<path d="M 851.6 108.1 L 858.8 93.1"/>
<path d="M 851.4 108.3 L 851.6 108.1"/>
<path d="M 941.9 275.7 L 965.1 262.7"/>
<path d="M 929.5 283.4 L 941.9 275.7"/>
<path d="M 503.5 334.7 L 499.2 338.4"/>
<path d="M 516.6 322.2 L 514.1 324.6"/>
<path d="M 1119.1 117.6 L 1129.4 109.5"/>
<path d="M 942.7 276.1 L 929.5 283.4"/>
<path d="M 902.3 298.5 L 894.2 303.3"/>
<path d="M 664.0 380.8 L 651.6 384.3"/>
<path d="M 651.6 384.3 L 663.9 380.6"/>
<path d="M 752.3 356.7 L 732.8 361.9"/>
<path d="M 752.2 356.5 L 775.3 350.3"/>
<path d="M 518.6 320.7 L 503.5 334.7"/>
<path d="M 495.3 341.9 L 492.8 344.7"/>
<path d="M 487.8 349.9 L 492.3 344.6"/>
<path d="M 515.0 321.7 L 512.5 324.2"/>
<path d="M 514.4 321.4 L 525.9 311.6"/>
<path d="M 523.0 315.1 L 515.9 322.1"/>
<path d="M 827.5 123.7 L 827.7 123.6"/>
<path d="M 813.7 130.8 L 827.5 123.7"/>
<path d="M 499.2 338.4 L 492.8 345.3"/>
<path d="M 856.8 68.5 L 857.5 63.8"/>
<path d="M 857.8 78.1 L 857.4 76.5"/>
</g>
<g font-family="'Zen Kaku Gothic New', sans-serif" font-size="28" fill="#2f2f2f" text-anchor="middle">
  <text x="672.6" y="214.6">熊本城</text>
</g>
</svg>
